<svg xmlns="http://www.w3.org/2000/svg" width="40" height="40" viewBox="0 0 118 118">
  <metadata><?xpacket begin="﻿" id="W5M0MpCehiHzreSzNTczkc9d"?>
<x:xmpmeta xmlns:x="adobe:ns:meta/" x:xmptk="Adobe XMP Core 5.6-c138 79.159824, 2016/09/14-01:09:01        ">
   <rdf:RDF xmlns:rdf="http://www.w3.org/1999/02/22-rdf-syntax-ns#">
      <rdf:Description rdf:about=""/>
   </rdf:RDF>
</x:xmpmeta>
                                                                                                    
                                                                                                    
                                                                                                    
                                                                                                    
                                                                                                    
                                                                                                    
                                                                                                    
                                                                                                    
                                                                                                    
                                                                                                    
                                                                                                    
                                                                                                    
                                                                                                    
                                                                                                    
                                                                                                    
                                                                                                    
                                                                                                    
                                                                                                    
                                                                                                    
                                                                                                    
                           
<?xpacket end="w"?></metadata>
<defs>
    <style>
      .cls-1 {
        fill: #54b43f;
        fill-rule: evenodd;
      }
    </style>
  </defs>
  <path class="cls-1" d="M114.015,113.31L77.866,69.219a1.95,1.95,0,0,0-1.506-.713H75.988l-1.165-5.437a27.042,27.042,0,0,0,3.676.284,14.46,14.46,0,0,0,10.634-4.284,33.121,33.121,0,0,0,3.545-4.42c1.86-2.585,3.968-5.517,5.959-6.2l0.008,0a1.948,1.948,0,1,0-1.255-3.688h0c-2.63.9-5.521-.676-7.194-2.293a27.675,27.675,0,0,1-4.517-6.534l-0.769-1.356a27.708,27.708,0,0,0-4.255-5.844A13.6,13.6,0,0,0,86.1,17.858V2.274A1.947,1.947,0,0,0,84.152.326H76.36a1.947,1.947,0,0,0-1.948,1.948V17.858a1.95,1.95,0,0,1-1.948,1.948H67.516a11.688,11.688,0,1,0-17.376,0H45.192a1.95,1.95,0,0,1-1.948-1.948V2.274A1.947,1.947,0,0,0,41.3.326H33.5a1.947,1.947,0,0,0-1.948,1.948V17.858A13.652,13.652,0,0,0,45.192,31.494H47.14V42.977L41.668,68.506H41.3a1.95,1.95,0,0,0-1.506.713L3.641,113.31H0.388v3.9h116.88v-3.9h-3.253ZM81.526,36.521l0.752,1.327a31.019,31.019,0,0,0,5.205,7.426,13.675,13.675,0,0,0,5.082,3.119C91.5,49.62,90.5,51.009,89.515,52.376a31.131,31.131,0,0,1-3.086,3.89c-3.477,3.35-7.036,3.621-12.483,2.719l-3.43-16.009V31.494h1.948a13.541,13.541,0,0,0,4.556-.8A20.655,20.655,0,0,1,81.526,36.521Zm-22.7-32.3a7.792,7.792,0,1,1-7.792,7.792A7.8,7.8,0,0,1,58.828,4.222ZM50.993,43.591a1.925,1.925,0,0,0,.043-0.409V29.546A1.947,1.947,0,0,0,49.088,27.6h-3.9a9.751,9.751,0,0,1-9.74-9.74V4.222h3.9V17.858A5.851,5.851,0,0,0,45.192,23.7H72.464a5.851,5.851,0,0,0,5.844-5.844V4.222h3.9V17.858a9.751,9.751,0,0,1-9.74,9.74h-3.9a1.947,1.947,0,0,0-1.948,1.948V43.182a1.938,1.938,0,0,0,.043.409L72,68.506H66.194l-5.476-21.9a1.947,1.947,0,0,0-3.779,0l-5.476,21.9H45.654ZM62.177,68.506h-6.7l3.349-13.4ZM42.218,72.4H75.439l9.7,11.838-6.836,6.835-8.363-8.363a1.946,1.946,0,0,0-2.755,0l-8.363,8.363-8.363-8.363a1.946,1.946,0,0,0-2.754,0l-8.363,8.363L32.513,84.24ZM8.679,113.31L30.031,87.267l7.94,7.94a1.946,1.946,0,0,0,2.754,0l8.363-8.363,8.363,8.363a1.946,1.946,0,0,0,2.755,0l8.363-8.363,8.363,8.363a1.947,1.947,0,0,0,2.754,0l7.94-7.94,21.352,26.043H8.679Zm48.2-7.792h3.9v3.9h-3.9v-3.9Zm7.792,0h3.9v3.9h-3.9v-3.9Zm-15.584,0h3.9v3.9h-3.9v-3.9Zm-23.376-93.5a9.751,9.751,0,0,1-9.74-9.74,1.948,1.948,0,1,0-3.9,0,9.751,9.751,0,0,1-9.74,9.74,1.948,1.948,0,0,0,0,3.9,9.751,9.751,0,0,1,9.74,9.74,1.948,1.948,0,0,0,3.9,0,9.751,9.751,0,0,1,9.74-9.74A1.948,1.948,0,1,0,25.712,12.014ZM14.024,18.631a13.763,13.763,0,0,0-4.669-4.67,13.763,13.763,0,0,0,4.669-4.669,13.762,13.762,0,0,0,4.669,4.669A13.762,13.762,0,0,0,14.024,18.631Zm101.3,51.823a9.751,9.751,0,0,1-9.74-9.74,1.948,1.948,0,1,0-3.9,0,9.751,9.751,0,0,1-9.74,9.74,1.948,1.948,0,0,0,0,3.9,9.751,9.751,0,0,1,9.74,9.74,1.948,1.948,0,1,0,3.9,0,9.751,9.751,0,0,1,9.74-9.74A1.948,1.948,0,1,0,115.32,70.454Zm-11.688,6.617A13.744,13.744,0,0,0,98.963,72.4a13.742,13.742,0,0,0,4.669-4.669A13.744,13.744,0,0,0,108.3,72.4,13.761,13.761,0,0,0,103.632,77.071ZM23.764,47.077A13.64,13.64,0,0,0,13.6,51.634a9.558,9.558,0,0,0-3.469-.66,9.751,9.751,0,0,0-9.74,9.74,9.624,9.624,0,0,0,.339,2.439A1.947,1.947,0,0,0,2.613,64.61H35.277A1.949,1.949,0,0,0,37.2,62.983,13.569,13.569,0,0,0,23.764,47.077ZM4.284,60.713a5.851,5.851,0,0,1,5.844-5.844,5.755,5.755,0,0,1,3.014.867,1.946,1.946,0,0,0,2.612-.555A9.736,9.736,0,0,1,33.5,60.713H4.284Z"/>
</svg>
