<svg xmlns="http://www.w3.org/2000/svg" width="40" height="40" viewBox="0 0 118 118">
  <metadata><?xpacket begin="﻿" id="W5M0MpCehiHzreSzNTczkc9d"?>
<x:xmpmeta xmlns:x="adobe:ns:meta/" x:xmptk="Adobe XMP Core 5.6-c138 79.159824, 2016/09/14-01:09:01        ">
   <rdf:RDF xmlns:rdf="http://www.w3.org/1999/02/22-rdf-syntax-ns#">
      <rdf:Description rdf:about=""/>
   </rdf:RDF>
</x:xmpmeta>
                                                                                                    
                                                                                                    
                                                                                                    
                                                                                                    
                                                                                                    
                                                                                                    
                                                                                                    
                                                                                                    
                                                                                                    
                                                                                                    
                                                                                                    
                                                                                                    
                                                                                                    
                                                                                                    
                                                                                                    
                                                                                                    
                                                                                                    
                                                                                                    
                                                                                                    
                                                                                                    
                           
<?xpacket end="w"?></metadata>
<defs>
    <style>
      .cls-1 {
        fill: #52b440;
        fill-rule: evenodd;
      }
    </style>
  </defs>
  <path class="cls-1" d="M99.846,72.916a8.942,8.942,0,0,0-8.935-8.929H89.042a1.724,1.724,0,1,0,0,3.449h1.869a5.48,5.48,0,0,1,2.447,10.386,1.724,1.724,0,0,0-.233,2.944,4.965,4.965,0,0,1-1.1,8.677,1.724,1.724,0,0,0-.542,2.883,4.495,4.495,0,0,1-2.059,7.713,2.16,2.16,0,0,0-.565,4,4.507,4.507,0,0,1,2.33,3.856,4.39,4.39,0,0,1-1.282,3.175,4.722,4.722,0,0,1-3.349,1.4h-37.2a7.889,7.889,0,0,1-4.01-1.095l-3.09-1.822v-8.682a1.725,1.725,0,0,0-3.451,0v10.547a3.436,3.436,0,0,1-3.433,3.431H8.96a1.724,1.724,0,1,0,0,3.448H35.373a6.9,6.9,0,0,0,6.595-4.91l1.625,0.958a11.353,11.353,0,0,0,5.764,1.573h37.2a8.2,8.2,0,0,0,5.811-2.434,7.816,7.816,0,0,0,2.271-5.654,7.956,7.956,0,0,0-2.187-5.326,7.932,7.932,0,0,0,2.811-10.955A8.4,8.4,0,0,0,96.846,79.6a8.872,8.872,0,0,0,3-6.679h0ZM60.391,19.239a0.051,0.051,0,0,1,.015.045l-1,5.985a3.5,3.5,0,0,0,5.1,3.665l5.361-2.849a0.049,0.049,0,0,1,.047,0l5.387,2.8a3.5,3.5,0,0,0,5.063-3.713l-1.055-5.975a0.051,0.051,0,0,1,.014-0.045l4.327-4.255a3.5,3.5,0,0,0-1.968-5.96l-6.012-.844a0.05,0.05,0,0,1-.038-0.028L72.918,2.636A3.48,3.48,0,0,0,69.787.7H69.769a3.479,3.479,0,0,0-3.13,1.965L63.978,8.118a0.051,0.051,0,0,1-.038.028l-6,.9a3.5,3.5,0,0,0-1.912,5.978Zm-1.968-6.775a0.083,0.083,0,0,1,.025-0.006l6-.9A3.5,3.5,0,0,0,67.079,9.63L69.74,4.177a0.088,0.088,0,0,1,.014-0.022,0.082,0.082,0,0,1,.063,0,0.089,0.089,0,0,1,.014.022L72.544,9.6a3.5,3.5,0,0,0,2.645,1.9L81.2,12.35a0.094,0.094,0,0,1,.025.006,0.047,0.047,0,0,1,0,.08L76.9,16.692a3.5,3.5,0,0,0-.993,3.1l1.054,5.975a0.089,0.089,0,0,1,0,.026,0.047,0.047,0,0,1-.075.028l-5.387-2.8a3.5,3.5,0,0,0-3.258.015l-5.36,2.849a0.078,0.078,0,0,1-.024.01,0.082,0.082,0,0,1-.052-0.037,0.092,0.092,0,0,1,0-.026l1-5.985a3.5,3.5,0,0,0-1.022-3.092L58.42,12.544a0.094,0.094,0,0,1-.017-0.02,0.085,0.085,0,0,1,.02-0.061h0ZM31.94,30.337l-0.77,4.618a3.139,3.139,0,0,0,4.576,3.29l4.136-2.2,4.156,2.159a3.143,3.143,0,0,0,4.545-3.333l-0.814-4.61,3.339-3.283a3.141,3.141,0,0,0-1.767-5.35L44.7,20.978,42.609,16.79A3.124,3.124,0,0,0,39.8,15.052H39.782a3.124,3.124,0,0,0-2.81,1.764l-2.053,4.208-4.632.7a3.141,3.141,0,0,0-1.717,5.366Zm3.652-5.927a3.143,3.143,0,0,0,2.358-1.729L39.8,18.888l1.887,3.775a3.142,3.142,0,0,0,2.375,1.707l4.182,0.587-3.01,2.96a3.139,3.139,0,0,0-.891,2.785l0.733,4.156-3.747-1.947a3.144,3.144,0,0,0-2.925.014l-3.729,1.981,0.694-4.163a3.14,3.14,0,0,0-.917-2.776l-3.038-2.931Zm76.014-.541a3.123,3.123,0,0,0-2.527-2.15l-4.633-.7-2.053-4.208a3.144,3.144,0,0,0-5.637-.026l-2.093,4.188-4.639.651a3.141,3.141,0,0,0-1.767,5.349L91.6,30.263l-0.814,4.61a3.143,3.143,0,0,0,4.545,3.333l4.156-2.159,4.136,2.2a3.143,3.143,0,0,0,4.576-3.29l-0.769-4.618,3.369-3.252a3.121,3.121,0,0,0,.811-3.216h0Zm-6.693,4.1A3.14,3.14,0,0,0,104,30.745l0.694,4.163-3.728-1.981a3.144,3.144,0,0,0-2.925-.014l-3.747,1.946L95.022,30.7a3.138,3.138,0,0,0-.891-2.784l-3.01-2.96,4.182-.587a3.143,3.143,0,0,0,2.375-1.707l1.887-3.775,1.851,3.793a3.143,3.143,0,0,0,2.358,1.729l4.176,0.627ZM8.96,60.657h7.362a1.724,1.724,0,1,0,0-3.449H8.96A1.724,1.724,0,1,0,8.96,60.657Zm14.715,0h11.7a3.436,3.436,0,0,1,3.433,3.431V93.526a1.725,1.725,0,0,0,3.451,0V66.289l2.44-5.133a9.969,9.969,0,0,1,5.111-4.9l1.916-.814a1.819,1.819,0,0,0,.194-0.1l11.687-6.8a1.724,1.724,0,0,0,.719-0.814l3.1-7.278a3.367,3.367,0,0,1,3.111-2.045,5.652,5.652,0,0,1,5.245,3.512,7.11,7.11,0,0,1,.537,2.718v8.029a15.338,15.338,0,0,1-1.4,6.42l-1.765,3.861a3.169,3.169,0,0,0,2.884,4.486h5.646a1.724,1.724,0,1,0,0-3.449H76.478l1.584-3.465a18.763,18.763,0,0,0,1.71-7.853V44.639a10.538,10.538,0,0,0-.8-4.03,9.1,9.1,0,0,0-8.452-5.65A6.807,6.807,0,0,0,64.252,39.1l-2.88,6.752-11.1,6.458-1.817.771a13.415,13.415,0,0,0-6.878,6.594l-0.368.774a6.885,6.885,0,0,0-5.839-3.242h-11.7a1.725,1.725,0,1,0,0,3.449h0Z"/>
</svg>
