<svg xmlns="http://www.w3.org/2000/svg" width="25" height="25" viewBox="0 0 120 120">
  <metadata><?xpacket begin="﻿" id="W5M0MpCehiHzreSzNTczkc9d"?>
<x:xmpmeta xmlns:x="adobe:ns:meta/" x:xmptk="Adobe XMP Core 5.6-c138 79.159824, 2016/09/14-01:09:01        ">
   <rdf:RDF xmlns:rdf="http://www.w3.org/1999/02/22-rdf-syntax-ns#">
      <rdf:Description rdf:about=""/>
   </rdf:RDF>
</x:xmpmeta>
                                                                                                    
                                                                                                    
                                                                                                    
                                                                                                    
                                                                                                    
                                                                                                    
                                                                                                    
                                                                                                    
                                                                                                    
                                                                                                    
                                                                                                    
                                                                                                    
                                                                                                    
                                                                                                    
                                                                                                    
                                                                                                    
                                                                                                    
                                                                                                    
                                                                                                    
                                                                                                    
                           
<?xpacket end="w"?></metadata>
<defs>
    <style>
      .cls-1 {
        fill: #52b440;
        fill-rule: evenodd;
      }
    </style>
  </defs>
  <path class="cls-1" d="M60.7,1.632c2.092,1.421,4.317,2.682,6.253,4.29A37.819,37.819,0,0,1,81.206,35.5c0.1,5.127.043,10.259-.007,15.387a2.429,2.429,0,0,0,1,2.1c3.465,2.907,6.869,5.885,10.323,8.8a2.811,2.811,0,0,1,1.095,2.352c-0.03,7.865-.014,15.73-0.019,23.595,0,2.106-1.21,2.821-3.033,1.788-3.3-1.872-6.617-3.729-9.883-5.664a5.351,5.351,0,0,0-3.117-.809c-1.288.063-2.582,0.014-4.128,0.014,0.621,1.222,1.155,2.322,1.747,3.39a1.121,1.121,0,0,0,.685.333,8.8,8.8,0,0,1,6.88,6.555,2.83,2.83,0,0,0,.187.38c1.6,0,3.228,0,4.859,0a9.183,9.183,0,0,1,8.887,6.228,1.411,1.411,0,0,0,1.35,1.08,15.917,15.917,0,0,1,13.317,14.923,2.462,2.462,0,0,1-1.138,2.41H70.281c-0.8-.545-1.426-1.206-1.052-2.262a1.913,1.913,0,0,1,2.233-1.16c0.265,0.016.532,0,.8,0h35.467c-0.038-.407-0.037-0.674-0.091-0.931a12.5,12.5,0,0,0-11.576-9.779c-1.714-.066-2.079-0.4-2.333-2.106a5.906,5.906,0,0,0-5.772-4.984c-1.863-.008-3.726,0-5.589,0-2.279,0-2.494-.181-2.864-2.408a5.178,5.178,0,0,0-4.749-4.624c-4.256-.08-8.514,0-12.772.012a0.819,0.819,0,0,0-.256.183v1.307q0,8.491,0,16.982a7.21,7.21,0,0,1-.077,1.361,1.53,1.53,0,0,1-1.6,1.337,1.549,1.549,0,0,1-1.676-1.383,6.917,6.917,0,0,1-.066-1.248Q58.3,100.059,58.3,91.453c0-.436-0.037-0.872-0.061-1.386-4.044,0-7.955,0-11.866,0a5.7,5.7,0,0,0-5.914,5.154c-0.195,1.444-.7,1.911-2.148,1.92-2.053.013-4.106,0-6.159,0a5.869,5.869,0,0,0-5.864,5.133c-0.188,1.459-.657,1.9-2.124,1.951a12.1,12.1,0,0,0-6.709,2.241,12.245,12.245,0,0,0-5.2,8.475H13.7q24.523,0,49.046-.009c0.985,0,1.873.139,2.222,1.18a1.834,1.834,0,0,1-1.081,2.249H9.817a2.473,2.473,0,0,1-1.132-2.522A15.959,15.959,0,0,1,22,101.029a1.419,1.419,0,0,0,1.348-1.082,9.2,9.2,0,0,1,8.777-6.219c1.445,0,2.891.04,4.332-.032a1.28,1.28,0,0,0,.936-0.66,9.431,9.431,0,0,1,6.742-6.215,1.384,1.384,0,0,0,.8-0.53c0.557-.983,1.039-2.009,1.667-3.254-2.8.258-5.418-.5-7.932,1.182-2.93,1.955-6.1,3.55-9.173,5.29-1.839,1.041-3.06.352-3.066-1.727q-0.013-4.673,0-9.345c0-1.465.584-2.233,1.671-2.243,1.121-.011,1.74.8,1.747,2.316,0.01,2.127.008,4.255,0.014,6.382a2.191,2.191,0,0,0,.073.332c0.272-.121.535-0.213,0.773-0.348,2.478-1.4,4.965-2.792,7.411-4.248a1.56,1.56,0,0,0,.655-1.127c0.038-7.408.027-14.816,0.024-22.224a3.741,3.741,0,0,0-.055-0.413,1.717,1.717,0,0,0-.39.181c-2.688,2.294-5.383,4.58-8.037,6.913a1.78,1.78,0,0,0-.445,1.181c-0.05,1.632-.006,3.267-0.026,4.9-0.017,1.356-.648,2.083-1.741,2.076S26.439,71.4,26.431,70c-0.011-2.013.025-4.027-.015-6.04a2.445,2.445,0,0,1,.976-2.057c3.564-3.024,7.1-6.086,10.664-9.1a1.909,1.909,0,0,0,.765-1.636c-0.032-5.128-.1-10.259,0-15.385Q39.276,13.363,58.727,2.094a5.653,5.653,0,0,0,.6-0.462H60.7ZM77.733,72.4c0.026-.317.065-0.573,0.065-0.83,0-12.156.029-24.312-.02-36.467a33.929,33.929,0,0,0-3.568-14.931,1.445,1.445,0,0,0-1.535-.984c-2.736.055-5.474,0.023-8.211,0.02-1.643,0-2.43-.57-2.408-1.733,0.021-1.147.807-1.684,2.473-1.686,2.015,0,4.03,0,6.044,0,0.275,0,.55-0.059.952-0.105A34.054,34.054,0,0,0,60.493,5.6a1.327,1.327,0,0,0-1.1.093,33.22,33.22,0,0,0-10.444,9.356,5.958,5.958,0,0,0-.384.74c2.53,0,4.923-.01,7.315,0,1.341,0.007,2.094.648,2.089,1.726S57.218,19.2,55.861,19.2c-2.851.009-5.7,0.033-8.553-.017a1.377,1.377,0,0,0-1.466.917,35.344,35.344,0,0,0-3.617,15.836q0.007,17.607,0,35.214V72.4H77.733Zm3.49-15.76v1.5c0,6.64.065,13.281-.046,19.919A3.1,3.1,0,0,0,83.1,81.38c2.363,1.169,4.61,2.572,6.952,3.9a2.284,2.284,0,0,0,.117-0.437q0.009-9.96-.007-19.919a1.435,1.435,0,0,0-.419-0.969C86.995,61.563,84.221,59.2,81.223,56.637Zm-3.46,19.347H42.3v3.572H77.763V75.984ZM48.7,86.538H71.344c-0.549-1.082-.992-2.048-1.529-2.957a1.2,1.2,0,0,0-.883-0.489q-8.894-.043-17.789-0.006a1.133,1.133,0,0,0-.855.353C49.723,84.413,49.248,85.439,48.7,86.538ZM54.625,100.3c0,1.479.02,2.958-.006,4.436a1.724,1.724,0,1,1-3.4-.037q-0.035-4.435,0-8.871a1.734,1.734,0,0,1,1.728-1.969c1.023,0.01,1.656.74,1.676,2.006C54.643,97.346,54.625,98.825,54.625,100.3Zm14.2,0.043c0,1.441.02,2.882-.006,4.322-0.024,1.295-.737,2.091-1.775,2.052-1-.037-1.626-0.793-1.633-2.061q-0.025-4.379,0-8.757c0.008-1.284.621-2.009,1.64-2.039,1.062-.032,1.744.729,1.767,2.048C68.841,97.389,68.821,98.868,68.821,100.346ZM60.041,31.7A12.32,12.32,0,1,1,47.685,43.983,12.3,12.3,0,0,1,60.041,31.7Zm8.878,12.27a8.906,8.906,0,1,0-8.868,8.951A8.872,8.872,0,0,0,68.919,43.972Z"/>
</svg>
