<svg xmlns="http://www.w3.org/2000/svg" width="25" height="25" viewBox="0 0 118 118">
  <metadata><?xpacket begin="﻿" id="W5M0MpCehiHzreSzNTczkc9d"?>
<x:xmpmeta xmlns:x="adobe:ns:meta/" x:xmptk="Adobe XMP Core 5.6-c138 79.159824, 2016/09/14-01:09:01        ">
   <rdf:RDF xmlns:rdf="http://www.w3.org/1999/02/22-rdf-syntax-ns#">
      <rdf:Description rdf:about=""/>
   </rdf:RDF>
</x:xmpmeta>
                                                                                                    
                                                                                                    
                                                                                                    
                                                                                                    
                                                                                                    
                                                                                                    
                                                                                                    
                                                                                                    
                                                                                                    
                                                                                                    
                                                                                                    
                                                                                                    
                                                                                                    
                                                                                                    
                                                                                                    
                                                                                                    
                                                                                                    
                                                                                                    
                                                                                                    
                                                                                                    
                           
<?xpacket end="w"?></metadata>
<defs>
    <style>
      .cls-1 {
        fill: #52b440;
        fill-rule: evenodd;
      }
    </style>
  </defs>
  <path class="cls-1" d="M97.992,35.2a5.439,5.439,0,0,1-.883-3.268L97.387,26.9a8.237,8.237,0,0,0-4.511-7.8l-4.46-2.255a5.36,5.36,0,0,1-2.381-2.383L83.782,9.994a8.236,8.236,0,0,0-7.8-4.512l-5.031.277a5.421,5.421,0,0,1-3.261-.885L63.528,2.128a8.217,8.217,0,0,0-9.06,0L50.306,4.874a5.408,5.408,0,0,1-3.259.884l-5.033-.277a8.227,8.227,0,0,0-7.8,4.511l-2.253,4.464a5.361,5.361,0,0,1-2.38,2.383L25.12,19.1a8.239,8.239,0,0,0-4.507,7.8l0.277,5.036a5.44,5.44,0,0,1-.883,3.268l-2.745,4.165a8.234,8.234,0,0,0,0,9.066L20.007,52.6a5.439,5.439,0,0,1,.883,3.267L20.612,60.9a8.241,8.241,0,0,0,4.508,7.8l4.46,2.254a5.361,5.361,0,0,1,2.381,2.383l2.253,4.464q0.139,0.276.3,0.538L20.185,101.135a1.421,1.421,0,0,0,1.307,2.172L36.658,102.2l5.586,14.134a1.421,1.421,0,0,0,1.191.893c0.044,0,.088.006,0.131,0.006a1.42,1.42,0,0,0,1.2-.665L59,93.932,73.23,116.57a1.422,1.422,0,0,0,1.2.665q0.065,0,.131-0.006a1.423,1.423,0,0,0,1.191-.893L81.341,102.2l15.166,1.106a1.42,1.42,0,0,0,1.307-2.172L83.489,78.347q0.158-.262.3-0.537l2.253-4.465a5.358,5.358,0,0,1,2.38-2.383l4.462-2.255a8.24,8.24,0,0,0,4.506-7.8l-0.277-5.037a5.438,5.438,0,0,1,.883-3.267l2.743-4.166a8.232,8.232,0,0,0,0-9.066Zm-54.136,77.48-4.938-12.5a1.421,1.421,0,0,0-1.425-.895l-13.407.978,12.384-19.7a8.234,8.234,0,0,0,5.544,1.752l5.031-.278a5.428,5.428,0,0,1,3.261.885l3.034,2,3.981,6.333ZM93.914,100.27l-13.407-.978a1.421,1.421,0,0,0-1.425.895l-4.939,12.5L57.979,86.969a8.121,8.121,0,0,0,5.553-1.3l4.162-2.746a5.425,5.425,0,0,1,3.259-.884l5.033,0.278a8.229,8.229,0,0,0,5.544-1.752Zm4.448-53.4-2.743,4.165a8.3,8.3,0,0,0-1.347,4.986l0.277,5.037A5.4,5.4,0,0,1,91.6,66.173l-4.461,2.255A8.183,8.183,0,0,0,83.5,72.066l-2.253,4.465a5.382,5.382,0,0,1-5.106,2.953l-5.034-.277a8.278,8.278,0,0,0-4.981,1.351L61.965,83.3a5.375,5.375,0,0,1-5.931,0l-4.161-2.746a8.292,8.292,0,0,0-4.548-1.363c-0.145,0-.291,0-0.436.012l-5.032.278a5.384,5.384,0,0,1-5.106-2.954L34.5,72.065a8.183,8.183,0,0,0-3.636-3.638L26.4,66.174a5.4,5.4,0,0,1-2.953-5.113l0.277-5.037a8.3,8.3,0,0,0-1.346-4.985l-2.743-4.166a5.4,5.4,0,0,1,0-5.942l2.743-4.165a8.3,8.3,0,0,0,1.346-4.987L23.45,26.742A5.4,5.4,0,0,1,26.4,21.629l4.461-2.255A8.183,8.183,0,0,0,34.5,15.736l2.253-4.464a5.383,5.383,0,0,1,5.106-2.953L46.892,8.6a8.292,8.292,0,0,0,4.981-1.351L56.034,4.5a5.375,5.375,0,0,1,5.928,0l4.161,2.746A8.279,8.279,0,0,0,71.106,8.6l5.032-.277a5.387,5.387,0,0,1,5.106,2.954L83.5,15.736a8.182,8.182,0,0,0,3.636,3.638l4.46,2.256a5.4,5.4,0,0,1,2.955,5.113l-0.277,5.035a8.3,8.3,0,0,0,1.347,4.985l2.743,4.165a5.4,5.4,0,0,1,0,5.943h0ZM59,13.675A30.224,30.224,0,1,0,89.2,43.9,30.247,30.247,0,0,0,59,13.675Zm0,57.607A27.383,27.383,0,1,1,86.358,43.9,27.4,27.4,0,0,1,59,71.283ZM74.425,37.918L64.647,36.5l-4.373-8.869a1.422,1.422,0,0,0-2.55,0L53.351,36.5l-9.777,1.422a1.42,1.42,0,0,0-.788,2.422l7.076,6.9-1.671,9.749a1.421,1.421,0,0,0,2.063,1.5L59,53.887l8.744,4.6a1.421,1.421,0,0,0,2.063-1.5l-1.67-9.749,7.076-6.9a1.42,1.42,0,0,0-.788-2.422h0Zm-8.808,7.813a1.42,1.42,0,0,0-.408,1.256l1.31,7.646-6.856-3.609a1.42,1.42,0,0,0-1.324,0l-6.858,3.608,1.31-7.646a1.42,1.42,0,0,0-.408-1.256l-5.552-5.417L54.5,39.2a1.422,1.422,0,0,0,1.07-.778L59,31.468l3.428,6.953a1.42,1.42,0,0,0,1.07.778l7.671,1.116ZM54.443,23.275a1.443,1.443,0,0,0,.284-0.028c0.358-.073.724-0.137,1.089-0.191a1.42,1.42,0,1,0-.42-2.81c-0.413.062-.829,0.135-1.233,0.217a1.42,1.42,0,0,0,.281,2.813h0Zm-3.816,1.244a1.42,1.42,0,0,0-1.113-2.613,24.2,24.2,0,0,0-14.757,22.3,1.421,1.421,0,0,0,2.842,0A21.364,21.364,0,0,1,50.627,24.519Z"/>
</svg>
