<svg xmlns="http://www.w3.org/2000/svg" width="25" height="25" viewBox="0 0 118 118">
  <metadata><?xpacket begin="﻿" id="W5M0MpCehiHzreSzNTczkc9d"?>
<x:xmpmeta xmlns:x="adobe:ns:meta/" x:xmptk="Adobe XMP Core 5.6-c138 79.159824, 2016/09/14-01:09:01        ">
   <rdf:RDF xmlns:rdf="http://www.w3.org/1999/02/22-rdf-syntax-ns#">
      <rdf:Description rdf:about=""/>
   </rdf:RDF>
</x:xmpmeta>
                                                                                                    
                                                                                                    
                                                                                                    
                                                                                                    
                                                                                                    
                                                                                                    
                                                                                                    
                                                                                                    
                                                                                                    
                                                                                                    
                                                                                                    
                                                                                                    
                                                                                                    
                                                                                                    
                                                                                                    
                                                                                                    
                                                                                                    
                                                                                                    
                                                                                                    
                                                                                                    
                           
<?xpacket end="w"?></metadata>
<defs>
    <style>
      .cls-1 {
        fill: #52b440;
        fill-rule: evenodd;
      }
    </style>
  </defs>
  <path class="cls-1" d="M102.26,40.093C97.655,20.855,90.167,9.813,84.7,3.937a8.949,8.949,0,0,0-11.889-1.1,8.528,8.528,0,0,0-3.193,8.846,8.374,8.374,0,0,0-10.961,1.384,7.763,7.763,0,0,0,.613,10.821l1.943,1.764c-0.685.065-3.821,0.6-6.547,1.267a1.7,1.7,0,1,0,.813,3.3c2.537-.624,4.8-0.991,5.767-1.148a4.106,4.106,0,0,1,2.233.248C70.4,32.188,78.3,40.581,81.347,46.537c1.271,2.409,3.1,6.291,3.1,9.023a1.7,1.7,0,0,0,3.4,0c0-3.765-2.576-8.878-3.293-10.23A71.022,71.022,0,0,0,73.576,12.425a5.118,5.118,0,0,1,1.257-6.86,5.551,5.551,0,0,1,7.375.683C87.4,11.826,94.521,22.361,98.955,40.882A1.7,1.7,0,0,0,102.26,40.093ZM73.869,19.733a67.724,67.724,0,0,1,6.474,19.28A48.034,48.034,0,0,0,70.169,29.2L61.552,21.38a4.355,4.355,0,0,1-.344-6.071,4.956,4.956,0,0,1,6.921-.491Zm30.193,29.743c-0.025-.2-0.094-0.707-0.216-1.486a1.7,1.7,0,0,0-3.357.527c0.7,4.446,3.672,15.574-1.379,29.924-4.1,11.634-3.638,10.662-5.5,14.369-2.051,4.095-.993,7.3-1.281,17.754a2.969,2.969,0,0,1-2.967,2.964H70.786a1.7,1.7,0,1,0,0,3.394H89.357a6.369,6.369,0,0,0,6.366-6.358c0.238-11.2-.642-13.308,1.051-16.485,1.522-2.86,1.644-3.436,5.543-14.513A54.65,54.65,0,0,0,104.062,49.476ZM71.99,69.524l-0.47-13.262a7.77,7.77,0,0,0-1.748-4.626l-6.1-7.436a5.815,5.815,0,0,0-6.808-1.632c-4.929,2.164-8.958,3.4-11.053,3.4-3.192,0-8.737-4.114-3.16-9.684a18.952,18.952,0,0,1,5.6-3.652,1.7,1.7,0,1,0-1.4-3.091,22.281,22.281,0,0,0-6.6,4.344c-7.6,7.593-.9,15.478,5.564,15.478,3.314,0,8.584-2.007,12.42-3.691a2.4,2.4,0,0,1,2.812.676l6.1,7.436a4.356,4.356,0,0,1,.981,2.6l0.47,13.262a1.9,1.9,0,0,1-.65,1.5c-5.04,4.408-4.757,4.15-4.857,4.254a3.769,3.769,0,0,1-4.885.493c-1.145-.967-3.12-1.543-3.576-3.92a102.294,102.294,0,0,0-3.554-13.627c-2.822-6.493-8.3-9.338-13.942-7.249-2,.742-4.376,1.971-4.925,4.913-0.369,1.981.147,4.368,0.864,7.68a112.831,112.831,0,0,1,2.273,16.575,13.808,13.808,0,0,0,3.484,8.565c3.708,4.152,6.411,8.025,12.921,16.7,2.157,2.889,1.823,4.56,1.856,4.686a6.715,6.715,0,0,0,6.712,6.7h2.542a1.7,1.7,0,1,0,0-3.394H60.314A3.315,3.315,0,0,1,57,110.219c-0.048-.216.372-2.829-2.53-6.715-6.224-8.294-9.227-12.585-13.109-16.933a10.407,10.407,0,0,1-2.625-6.456,116.721,116.721,0,0,0-2.348-17.152c-1.417-6.545-1.468-7.429,1.922-8.684,5.824-2.156,8.854,3.6,9.636,5.4a103.4,103.4,0,0,1,3.341,12.934c0.776,4.046,4.075,5.263,4.979,6.071a7.155,7.155,0,0,0,9.219-.879l4.7-4.1A5.276,5.276,0,0,0,71.99,69.524ZM17.968,21.6a0.049,0.049,0,0,1,.015.044L17,27.543a3.447,3.447,0,0,0,5.025,3.61l5.284-2.806a0.049,0.049,0,0,1,.046,0l5.31,2.756a3.45,3.45,0,0,0,4.99-3.657L36.614,21.56a0.05,0.05,0,0,1,.014-0.044l4.265-4.192a3.446,3.446,0,0,0-1.94-5.871l-5.926-.832a0.05,0.05,0,0,1-.038-0.027L30.317,5.248A3.43,3.43,0,0,0,27.23,3.341H27.213a3.43,3.43,0,0,0-3.086,1.936L21.5,10.648a0.05,0.05,0,0,1-.037.028l-5.918.887a3.446,3.446,0,0,0-1.885,5.888Zm-1.939-6.674a0.084,0.084,0,0,1,.025-0.006l5.918-.887a3.451,3.451,0,0,0,2.589-1.9l2.623-5.372A0.082,0.082,0,0,1,27.2,6.744a0.08,0.08,0,0,1,.062,0,0.088,0.088,0,0,1,.014.022l2.674,5.347a3.45,3.45,0,0,0,2.607,1.873l5.926,0.832a0.091,0.091,0,0,1,.025.006,0.083,0.083,0,0,1,.02.059,0.084,0.084,0,0,1-.016.02l-4.265,4.192a3.444,3.444,0,0,0-.979,3.056L34.3,28.035a0.092,0.092,0,0,1,0,.026,0.082,0.082,0,0,1-.05.037,0.087,0.087,0,0,1-.024-0.01l-5.31-2.756a3.454,3.454,0,0,0-3.212.015l-5.284,2.806a0.083,0.083,0,0,1-.024.01,0.081,0.081,0,0,1-.051-0.037,0.086,0.086,0,0,1,0-.026l0.984-5.9a3.445,3.445,0,0,0-1.007-3.046l-4.3-4.151a0.09,0.09,0,0,1-.017-0.019,0.083,0.083,0,0,1,.019-0.059h0Z"/>
</svg>
