<svg xmlns="http://www.w3.org/2000/svg" width="25" height="25" viewBox="0 0 118 118">
  <metadata><?xpacket begin="﻿" id="W5M0MpCehiHzreSzNTczkc9d"?>
<x:xmpmeta xmlns:x="adobe:ns:meta/" x:xmptk="Adobe XMP Core 5.6-c138 79.159824, 2016/09/14-01:09:01        ">
   <rdf:RDF xmlns:rdf="http://www.w3.org/1999/02/22-rdf-syntax-ns#">
      <rdf:Description rdf:about=""/>
   </rdf:RDF>
</x:xmpmeta>
                                                                                                    
                                                                                                    
                                                                                                    
                                                                                                    
                                                                                                    
                                                                                                    
                                                                                                    
                                                                                                    
                                                                                                    
                                                                                                    
                                                                                                    
                                                                                                    
                                                                                                    
                                                                                                    
                                                                                                    
                                                                                                    
                                                                                                    
                                                                                                    
                                                                                                    
                                                                                                    
                           
<?xpacket end="w"?></metadata>
<defs>
    <style>
      .cls-1 {
        fill: #51b441;
        fill-rule: evenodd;
      }
    </style>
  </defs>
  <path class="cls-1" d="M115.657,70.97H104.511a1.719,1.719,0,1,0,0,3.438h9.427v32.154H88.9V74.408h8.121a1.719,1.719,0,1,0,0-3.437h-9.84a1.719,1.719,0,0,0-1.719,1.719v5.4H67.566v-16.6a5.33,5.33,0,0,0-2.944-4.75L53.3,49.848V34.737H69.379a5.284,5.284,0,0,0,5.278-5.278q-0.453-4.824-5.278-5.278h-2.35a1.719,1.719,0,1,0,0,3.438h2.35a1.84,1.84,0,1,1,0,3.68h-17.8a1.719,1.719,0,0,0-1.719,1.719V49.094H39.06V36.51a1.719,1.719,0,0,0-3.438,0V56.767c-1.685.064-3.681-.839-3.681-2.865V32.908a5.3,5.3,0,0,1,5.292-5.289H59.539a1.719,1.719,0,1,0,0-3.437H50.517a7.013,7.013,0,0,0,1-3.621V17A7.059,7.059,0,0,0,37.4,17V20.56a7.013,7.013,0,0,0,1,3.621H37.232a8.739,8.739,0,0,0-8.73,8.727V53.9c0,4.09,3.416,6.289,7.12,6.3v25h-5.4A1.719,1.719,0,0,0,28.5,86.925v5.4H18.914a1.719,1.719,0,1,0,0,3.438H28.5v10.8H3.461v-10.8h7.96a1.719,1.719,0,1,0,0-3.437H1.742A1.719,1.719,0,0,0,.023,94.043v14.238A1.719,1.719,0,0,0,1.742,110H115.657a1.72,1.72,0,0,0,1.72-1.719V72.689a1.719,1.719,0,0,0-1.72-1.719h0ZM40.84,17a3.621,3.621,0,0,1,7.242,0V20.56a3.621,3.621,0,0,1-7.242,0V17ZM63.06,59.8a1.876,1.876,0,0,1,1.067,1.687v16.6H60.391V63.759a1.718,1.718,0,0,0-.982-1.553L45.2,55.466c-1.339-.543-2.485.03-2.456,1.553V85.206H39.06V52.532H51.1S63.006,59.778,63.06,59.8h0Zm-16.881-.067,10.774,5.109,0.028,20.36h-10.8V59.737ZM31.94,88.644H56.981v17.918H31.94V88.644Zm53.519,17.918H60.419V81.526H85.459v25.037Zm26.876-89.3a2.81,2.81,0,0,0-1.455-.67l-6.65-.966L101.256,9.6a2.816,2.816,0,0,0-5.053,0l-2.974,6.025-6.65.966a2.815,2.815,0,0,0-1.561,4.8l4.812,4.69-1.136,6.622a2.815,2.815,0,0,0,4.087,2.969l5.948-3.127,5.949,3.127a2.816,2.816,0,0,0,4.087-2.969l-1.136-6.622,4.812-4.69A2.82,2.82,0,0,0,112.335,17.259Zm-1.343,2.648-5.314,5.18a0.738,0.738,0,0,0-.213.656l1.254,7.314a0.739,0.739,0,0,1-1.075.781l-6.57-3.453a0.742,0.742,0,0,0-.69,0l-6.569,3.453a0.739,0.739,0,0,1-1.076-.781l1.255-7.314a0.741,0.741,0,0,0-.213-0.656l-5.315-5.18a0.741,0.741,0,0,1,.411-1.264l7.345-1.067a0.742,0.742,0,0,0,.558-0.405l3.285-6.654a0.741,0.741,0,0,1,1.329,0l3.285,6.654a0.74,0.74,0,0,0,.558.405l7.345,1.067A0.741,0.741,0,0,1,110.992,19.907Zm-5,16.117a2.858,2.858,0,0,1-1.323-.328l-5.937-3.121L92.792,35.7A2.841,2.841,0,0,1,88.67,32.7l1.134-6.61L85,21.41a2.839,2.839,0,0,1,1.575-4.845l6.638-.965,2.969-6.014a2.839,2.839,0,0,1,5.1,0l2.969,6.014,6.638,0.965a2.839,2.839,0,0,1,1.574,4.846l-4.8,4.681,1.134,6.61A2.842,2.842,0,0,1,105.989,36.024Zm-7.26-3.5,0.011,0.006,5.948,3.127a2.792,2.792,0,0,0,4.052-2.944L107.6,26.075l4.822-4.7a2.791,2.791,0,0,0-1.548-4.763l-6.663-.968-0.006-.011-2.974-6.025a2.792,2.792,0,0,0-5.009,0l-2.98,6.037-0.012,0-6.651.966a2.79,2.79,0,0,0-1.548,4.763l4.821,4.7,0,0.012L88.718,32.71a2.791,2.791,0,0,0,4.052,2.944Zm7.26,1.428a0.759,0.759,0,0,1-.357-0.09l-6.569-3.453a0.728,0.728,0,0,0-.667,0l-6.569,3.453a0.759,0.759,0,0,1-.356.09,0.77,0.77,0,0,1-.588-0.276,0.75,0.75,0,0,1-.166-0.62l1.255-7.314a0.717,0.717,0,0,0-.206-0.635l-5.315-5.18a0.765,0.765,0,0,1,.424-1.305l7.345-1.067a0.717,0.717,0,0,0,.54-0.392l3.285-6.654a0.765,0.765,0,0,1,1.373,0l3.284,6.654a0.719,0.719,0,0,0,.54.392l7.345,1.067a0.765,0.765,0,0,1,.424,1.305L105.7,25.1a0.72,0.72,0,0,0-.207.634l1.255,7.314a0.75,0.75,0,0,1-.166.62A0.77,0.77,0,0,1,105.989,33.949Zm-7.26-3.674a0.77,0.77,0,0,1,.356.088l6.569,3.453a0.712,0.712,0,0,0,.334.084,0.721,0.721,0,0,0,.551-0.259,0.7,0.7,0,0,0,.155-0.581l-1.254-7.314a0.763,0.763,0,0,1,.22-0.678l5.315-5.18a0.717,0.717,0,0,0-.4-1.223L103.233,17.6a0.767,0.767,0,0,1-.576-0.419l-3.285-6.654a0.717,0.717,0,0,0-1.286,0L94.8,17.181a0.766,0.766,0,0,1-.576.419l-7.345,1.067a0.717,0.717,0,0,0-.4,1.223l5.315,5.18a0.765,0.765,0,0,1,.22.678L90.763,33.06a0.7,0.7,0,0,0,.156.581,0.721,0.721,0,0,0,.551.259,0.713,0.713,0,0,0,.334-0.084l6.569-3.453A0.768,0.768,0,0,1,98.729,30.275Z"/>
</svg>
