<svg xmlns="http://www.w3.org/2000/svg" width="24" height="24" viewBox="0 0 63 63">
  <metadata><?xpacket begin="﻿" id="W5M0MpCehiHzreSzNTczkc9d"?>
<x:xmpmeta xmlns:x="adobe:ns:meta/" x:xmptk="Adobe XMP Core 5.6-c138 79.159824, 2016/09/14-01:09:01        ">
   <rdf:RDF xmlns:rdf="http://www.w3.org/1999/02/22-rdf-syntax-ns#">
      <rdf:Description rdf:about=""/>
   </rdf:RDF>
</x:xmpmeta>
                                                                                                    
                                                                                                    
                                                                                                    
                                                                                                    
                                                                                                    
                                                                                                    
                                                                                                    
                                                                                                    
                                                                                                    
                                                                                                    
                                                                                                    
                                                                                                    
                                                                                                    
                                                                                                    
                                                                                                    
                                                                                                    
                                                                                                    
                                                                                                    
                                                                                                    
                                                                                                    
                           
<?xpacket end="w"?></metadata>
<defs>
    <style>
      .cls-1 {
        fill: #333;
        fill-rule: evenodd;
      }
    </style>
  </defs>
  <path class="cls-1" d="M36.706,20.562H34.069a0.888,0.888,0,1,1,0-1.775h2.637A0.888,0.888,0,1,1,36.706,20.562ZM60.677,63.18H2.08A1.776,1.776,0,0,1,.3,61.4V19.674a0.888,0.888,0,0,1,.888-0.888H19.065a0.888,0.888,0,1,1,0,1.775H2.08V61.4h58.6V20.562H42.921a0.888,0.888,0,1,1,0-1.775H61.565a0.888,0.888,0,0,1,.888.888V61.4A1.776,1.776,0,0,1,60.677,63.18ZM27.854,20.562H25.279a0.888,0.888,0,1,1,0-1.775h2.575A0.888,0.888,0,1,1,27.854,20.562Zm8.852,0H34.069a0.888,0.888,0,1,1,0-1.775h2.637A0.888,0.888,0,1,1,36.706,20.562Zm-17.641,0H1.192A0.888,0.888,0,0,1,.3,19.674V8.134A1.776,1.776,0,0,1,2.08,6.359H11.4a0.888,0.888,0,1,1,0,1.775H2.08V18.786H19.065A0.888,0.888,0,1,1,19.065,20.562Zm8.79,0H25.279a0.888,0.888,0,1,1,0-1.775h2.575A0.888,0.888,0,1,1,27.854,20.562Zm33.711,0H42.921a0.888,0.888,0,1,1,0-1.775H60.677V8.134H51.355a0.888,0.888,0,1,1,0-1.775h9.322a1.776,1.776,0,0,1,1.776,1.775v11.54A0.888,0.888,0,0,1,61.565,20.562ZM45.584,8.134H17.173a0.888,0.888,0,1,1,0-1.775H45.584A0.888,0.888,0,1,1,45.584,8.134Zm5.124,5.324H46.231A1.536,1.536,0,0,1,44.7,11.924V2.566a1.537,1.537,0,0,1,1.535-1.535h4.477a1.537,1.537,0,0,1,1.535,1.535v9.358A1.536,1.536,0,0,1,50.708,13.459Zm-4.236-1.775h4V2.806h-4v8.877ZM16.526,13.459H12.05a1.536,1.536,0,0,1-1.535-1.535V2.566A1.537,1.537,0,0,1,12.05,1.031h4.477a1.537,1.537,0,0,1,1.535,1.535v9.358A1.536,1.536,0,0,1,16.526,13.459ZM12.29,11.683h4V2.806h-4v8.877ZM53.267,33.289H48.556A1.494,1.494,0,0,1,47.064,31.8v-4.71A1.493,1.493,0,0,1,48.556,25.6h4.711a1.493,1.493,0,0,1,1.492,1.491V31.8A1.494,1.494,0,0,1,53.267,33.289ZM48.84,31.514h4.143V27.371H48.84v4.143Zm-8.6,1.775H35.534A1.494,1.494,0,0,1,34.042,31.8v-4.71A1.493,1.493,0,0,1,35.534,25.6h4.711a1.494,1.494,0,0,1,1.492,1.491V31.8A1.494,1.494,0,0,1,40.245,33.289Zm-4.427-1.775h4.144V27.371H35.818v4.143Zm-8.594,1.775H22.513A1.494,1.494,0,0,1,21.02,31.8v-4.71A1.494,1.494,0,0,1,22.513,25.6h4.711a1.493,1.493,0,0,1,1.492,1.491V31.8A1.494,1.494,0,0,1,27.224,33.289ZM22.8,31.514H26.94V27.371H22.8v4.143ZM53.267,44.829H48.556a1.494,1.494,0,0,1-1.492-1.492v-4.71a1.493,1.493,0,0,1,1.492-1.491h4.711a1.493,1.493,0,0,1,1.492,1.491v4.71A1.494,1.494,0,0,1,53.267,44.829ZM48.84,43.054h4.143V38.911H48.84v4.143Zm-8.6,1.775H35.534a1.494,1.494,0,0,1-1.492-1.492v-4.71a1.493,1.493,0,0,1,1.492-1.491h4.711a1.494,1.494,0,0,1,1.492,1.491v4.71A1.494,1.494,0,0,1,40.245,44.829Zm-4.427-1.775h4.144V38.911H35.818v4.143Zm-8.594,1.775H22.513a1.494,1.494,0,0,1-1.492-1.492v-4.71a1.494,1.494,0,0,1,1.492-1.491h4.711a1.493,1.493,0,0,1,1.492,1.491v4.71A1.494,1.494,0,0,1,27.224,44.829ZM22.8,43.054H26.94V38.911H22.8v4.143ZM14.2,44.829H9.491A1.494,1.494,0,0,1,8,43.337v-4.71a1.493,1.493,0,0,1,1.492-1.491H14.2a1.493,1.493,0,0,1,1.492,1.491v4.71A1.494,1.494,0,0,1,14.2,44.829ZM9.775,43.054h4.143V38.911H9.775v4.143Zm30.47,13.315H35.534a1.494,1.494,0,0,1-1.492-1.492v-4.71a1.493,1.493,0,0,1,1.492-1.491h4.711a1.494,1.494,0,0,1,1.492,1.491v4.71A1.494,1.494,0,0,1,40.245,56.369Zm-4.427-1.775h4.144V50.451H35.818v4.143Zm-8.594,1.775H22.513a1.494,1.494,0,0,1-1.492-1.492v-4.71a1.494,1.494,0,0,1,1.492-1.491h4.711a1.493,1.493,0,0,1,1.492,1.491v4.71A1.494,1.494,0,0,1,27.224,56.369ZM22.8,54.594H26.94V50.451H22.8v4.143ZM14.2,56.369H9.491A1.494,1.494,0,0,1,8,54.877v-4.71a1.493,1.493,0,0,1,1.492-1.491H14.2a1.493,1.493,0,0,1,1.492,1.491v4.71A1.494,1.494,0,0,1,14.2,56.369ZM9.775,54.594h4.143V50.451H9.775v4.143Z"/>
</svg>
