<svg xmlns="http://www.w3.org/2000/svg" width="16" height="16" viewBox="0 0 42 42">
  <metadata><?xpacket begin="﻿" id="W5M0MpCehiHzreSzNTczkc9d"?>
<x:xmpmeta xmlns:x="adobe:ns:meta/" x:xmptk="Adobe XMP Core 5.6-c138 79.159824, 2016/09/14-01:09:01        ">
   <rdf:RDF xmlns:rdf="http://www.w3.org/1999/02/22-rdf-syntax-ns#">
      <rdf:Description rdf:about=""/>
   </rdf:RDF>
</x:xmpmeta>
                                                                                                    
                                                                                                    
                                                                                                    
                                                                                                    
                                                                                                    
                                                                                                    
                                                                                                    
                                                                                                    
                                                                                                    
                                                                                                    
                                                                                                    
                                                                                                    
                                                                                                    
                                                                                                    
                                                                                                    
                                                                                                    
                                                                                                    
                                                                                                    
                                                                                                    
                                                                                                    
                           
<?xpacket end="w"?></metadata>
<defs>
    <style>
      .cls-1 {
        fill: #92b116;
        fill-rule: evenodd;
      }
    </style>
  </defs>
  <path class="cls-1" d="M37.114,26.993V8.32A3.326,3.326,0,0,0,33.792,5H32.463V3.669a1.993,1.993,0,1,0-3.986,0V5H25.154V3.669a1.993,1.993,0,1,0-3.986,0V5H17.181V3.669a1.993,1.993,0,0,0-3.987,0V5H9.873V3.669a1.993,1.993,0,1,0-3.986,0V5H4.557A3.326,3.326,0,0,0,1.235,8.32V34.9a3.326,3.326,0,0,0,3.322,3.322H26.9A7.967,7.967,0,1,0,37.114,26.993ZM29.805,3.669a0.664,0.664,0,1,1,1.329,0V7.655a0.664,0.664,0,1,1-1.329,0V3.669Zm-7.309,0a0.664,0.664,0,1,1,1.329,0V7.655a0.664,0.664,0,1,1-1.329,0V3.669Zm-7.973,0a0.664,0.664,0,0,1,1.329,0V7.655a0.664,0.664,0,0,1-1.329,0V3.669Zm-7.309,0a0.664,0.664,0,1,1,1.329,0V7.655a0.664,0.664,0,1,1-1.329,0V3.669ZM4.557,6.326H5.886V7.655a1.993,1.993,0,1,0,3.986,0V6.326h3.322V7.655a1.993,1.993,0,0,0,3.987,0V6.326h3.986V7.655a1.993,1.993,0,1,0,3.986,0V6.326h3.322V7.655a1.993,1.993,0,1,0,3.986,0V6.326h1.329A2,2,0,0,1,35.785,8.32v3.322H2.564V8.32A2,2,0,0,1,4.557,6.326Zm0,30.563A2,2,0,0,1,2.564,34.9V12.97H35.785V26.521a7.587,7.587,0,0,0-3.322-.142V22.937a0.664,0.664,0,0,0-.664-0.664H27.812a0.664,0.664,0,0,0-.664.664v3.987a0.664,0.664,0,0,0,.664.664h1.582a7.928,7.928,0,0,0-3.11,9.3H4.557ZM31.134,26.259H28.476V23.6h2.658v2.658Zm2.658,14.617a6.644,6.644,0,1,1,6.644-6.644A6.652,6.652,0,0,1,33.792,40.876Zm0.664-7.789V28.917H33.127v4.171a1.268,1.268,0,0,0-.645,1.341L30.054,36.37l0.831,1.038,2.426-1.941A1.324,1.324,0,0,0,34.456,33.087ZM9.873,14.964H5.886a0.664,0.664,0,0,0-.664.664v3.987a0.664,0.664,0,0,0,.664.664H9.873a0.664,0.664,0,0,0,.664-0.664V15.628A0.664,0.664,0,0,0,9.873,14.964ZM9.208,18.95H6.551V16.293H9.208V18.95Zm7.973-3.986H13.195a0.664,0.664,0,0,0-.664.664v3.987a0.664,0.664,0,0,0,.664.664h3.987a0.664,0.664,0,0,0,.664-0.664V15.628A0.664,0.664,0,0,0,17.181,14.964ZM16.517,18.95H13.859V16.293h2.658V18.95Zm7.973-3.986H20.5a0.664,0.664,0,0,0-.664.664v3.987a0.664,0.664,0,0,0,.664.664H24.49a0.664,0.664,0,0,0,.664-0.664V15.628A0.664,0.664,0,0,0,24.49,14.964ZM23.825,18.95H21.168V16.293h2.658V18.95Zm3.987,1.329H31.8a0.664,0.664,0,0,0,.664-0.664V15.628a0.664,0.664,0,0,0-.664-0.664H27.812a0.664,0.664,0,0,0-.664.664v3.987A0.664,0.664,0,0,0,27.812,20.279Zm0.665-3.986h2.658V18.95H28.476V16.293Zm-18.6,5.98H5.886a0.664,0.664,0,0,0-.664.664v3.987a0.664,0.664,0,0,0,.664.664H9.873a0.664,0.664,0,0,0,.664-0.664V22.937A0.664,0.664,0,0,0,9.873,22.272ZM9.208,26.259H6.551V23.6H9.208v2.658Zm7.973-3.986H13.195a0.664,0.664,0,0,0-.664.664v3.987a0.664,0.664,0,0,0,.664.664h3.987a0.664,0.664,0,0,0,.664-0.664V22.937A0.664,0.664,0,0,0,17.181,22.272Zm-0.665,3.986H13.859V23.6h2.658v2.658Zm7.973-3.986H20.5a0.664,0.664,0,0,0-.664.664v3.987a0.664,0.664,0,0,0,.664.664H24.49a0.664,0.664,0,0,0,.664-0.664V22.937A0.664,0.664,0,0,0,24.49,22.272Zm-0.664,3.986H21.168V23.6h2.658v2.658ZM9.873,29.581H5.886a0.664,0.664,0,0,0-.664.664v3.986a0.664,0.664,0,0,0,.664.664H9.873a0.664,0.664,0,0,0,.664-0.664V30.245A0.664,0.664,0,0,0,9.873,29.581ZM9.208,33.567H6.551V30.91H9.208v2.658Zm7.973-3.986H13.195a0.664,0.664,0,0,0-.664.664v3.986a0.664,0.664,0,0,0,.664.664h3.987a0.664,0.664,0,0,0,.664-0.664V30.245A0.664,0.664,0,0,0,17.181,29.581Zm-0.665,3.986H13.859V30.91h2.658v2.658Zm7.973-3.986H20.5a0.664,0.664,0,0,0-.664.664v3.986a0.664,0.664,0,0,0,.664.664H24.49a0.664,0.664,0,0,0,.664-0.664V30.245A0.664,0.664,0,0,0,24.49,29.581Zm-0.664,3.986H21.168V30.91h2.658v2.658Z"/>
</svg>
