<svg xmlns="http://www.w3.org/2000/svg" width="24" height="24" viewBox="0 0 77 77">
  <metadata><?xpacket begin="﻿" id="W5M0MpCehiHzreSzNTczkc9d"?>
<x:xmpmeta xmlns:x="adobe:ns:meta/" x:xmptk="Adobe XMP Core 5.6-c138 79.159824, 2016/09/14-01:09:01        ">
   <rdf:RDF xmlns:rdf="http://www.w3.org/1999/02/22-rdf-syntax-ns#">
      <rdf:Description rdf:about=""/>
   </rdf:RDF>
</x:xmpmeta>
                                                                                                    
                                                                                                    
                                                                                                    
                                                                                                    
                                                                                                    
                                                                                                    
                                                                                                    
                                                                                                    
                                                                                                    
                                                                                                    
                                                                                                    
                                                                                                    
                                                                                                    
                                                                                                    
                                                                                                    
                                                                                                    
                                                                                                    
                                                                                                    
                                                                                                    
                                                                                                    
                           
<?xpacket end="w"?></metadata>
<defs>
    <style>
      .cls-1 {
        fill: #404962;
        fill-rule: evenodd;
      }
    </style>
  </defs>
  <path class="cls-1" d="M73.715,17.7a8.152,8.152,0,0,0-5.979-2.519H55.778V15.033a6.457,6.457,0,0,0-1.945-4.677,6.594,6.594,0,0,0-4.682-1.943H27.541a6.637,6.637,0,0,0-6.7,6.62v0.144H8.956A8.151,8.151,0,0,0,2.977,17.7,8.55,8.55,0,0,0,.456,23.668V59.5a8.134,8.134,0,0,0,2.521,5.972,8.568,8.568,0,0,0,5.979,2.519h58.78a8.152,8.152,0,0,0,5.979-2.519A8.55,8.55,0,0,0,76.236,59.5V23.668A8.135,8.135,0,0,0,73.715,17.7ZM72.49,59.5H72.418a4.67,4.67,0,0,1-4.682,4.677H8.956A4.67,4.67,0,0,1,4.274,59.5V23.668A4.67,4.67,0,0,1,8.956,18.99h13.9A1.936,1.936,0,0,0,24.8,17.048V14.961a2.71,2.71,0,0,1,2.809-2.806H49.151a2.71,2.71,0,0,1,2.809,2.806v2.087a1.936,1.936,0,0,0,1.945,1.943h13.9a4.671,4.671,0,0,1,4.682,4.677V59.5ZM38.346,23.884a17.761,17.761,0,0,0-12.534,5.181A17.7,17.7,0,0,0,38.346,59.286,17.76,17.76,0,0,0,50.88,54.105a17.706,17.706,0,0,0,0-25.041A17.761,17.761,0,0,0,38.346,23.884Zm9.8,27.559a13.923,13.923,0,0,1-19.593,0,13.748,13.748,0,0,1-4.034-9.786,14.054,14.054,0,0,1,4.034-9.786,13.778,13.778,0,0,1,9.8-4.029,14.085,14.085,0,0,1,9.8,4.029,13.748,13.748,0,0,1,4.034,9.786A13.457,13.457,0,0,1,48.143,51.443ZM63.99,23.812a3.526,3.526,0,1,1-3.53,3.526A3.528,3.528,0,0,1,63.99,23.812Z"/>
</svg>
