<svg xmlns="http://www.w3.org/2000/svg" width="16" height="16" viewBox="0 0 45 45">
  <metadata><?xpacket begin="﻿" id="W5M0MpCehiHzreSzNTczkc9d"?>
<x:xmpmeta xmlns:x="adobe:ns:meta/" x:xmptk="Adobe XMP Core 5.6-c138 79.159824, 2016/09/14-01:09:01        ">
   <rdf:RDF xmlns:rdf="http://www.w3.org/1999/02/22-rdf-syntax-ns#">
      <rdf:Description rdf:about=""/>
   </rdf:RDF>
</x:xmpmeta>
                                                                                                    
                                                                                                    
                                                                                                    
                                                                                                    
                                                                                                    
                                                                                                    
                                                                                                    
                                                                                                    
                                                                                                    
                                                                                                    
                                                                                                    
                                                                                                    
                                                                                                    
                                                                                                    
                                                                                                    
                                                                                                    
                                                                                                    
                                                                                                    
                                                                                                    
                                                                                                    
                           
<?xpacket end="w"?></metadata>
<defs>
    <style>
      .cls-1 {
        fill: #92b116;
        fill-rule: evenodd;
      }
    </style>
  </defs>
  <path class="cls-1" d="M22.6,0.758a0.108,0.108,0,0,1-.07.012A21.327,21.327,0,0,0,5.765,35.4L2.648,42.624a1.159,1.159,0,0,0,.607,1.526,1.186,1.186,0,0,0,.665.081l11.429-2a20.631,20.631,0,0,0,7.121,1.235A21.352,21.352,0,1,0,22.6.758ZM22.482,41.144a18.77,18.77,0,0,1-6.6-1.2,1.12,1.12,0,0,0-.619-0.058L5.648,41.563l2.545-5.907a1.17,1.17,0,0,0-.187-1.224,18.624,18.624,0,0,1-3.245-5.383A19.029,19.029,0,0,1,22.54,3.089,18.962,18.962,0,0,1,41.569,22.011v0.07A19.094,19.094,0,0,1,22.482,41.144ZM21.571,17.852h-6.3a1.165,1.165,0,1,0,0,2.33h6.3A1.165,1.165,0,1,0,21.571,17.852Zm8.172,5.826H15.267a1.165,1.165,0,1,0,0,2.33H29.743A1.165,1.165,0,1,0,29.743,23.678Z"/>
</svg>
