<svg xmlns="http://www.w3.org/2000/svg" width="30" height="30" viewBox="0 0 75 75">
  <metadata><?xpacket begin="﻿" id="W5M0MpCehiHzreSzNTczkc9d"?>
<x:xmpmeta xmlns:x="adobe:ns:meta/" x:xmptk="Adobe XMP Core 5.6-c138 79.159824, 2016/09/14-01:09:01        ">
   <rdf:RDF xmlns:rdf="http://www.w3.org/1999/02/22-rdf-syntax-ns#">
      <rdf:Description rdf:about=""/>
   </rdf:RDF>
</x:xmpmeta>
                                                                                                    
                                                                                                    
                                                                                                    
                                                                                                    
                                                                                                    
                                                                                                    
                                                                                                    
                                                                                                    
                                                                                                    
                                                                                                    
                                                                                                    
                                                                                                    
                                                                                                    
                                                                                                    
                                                                                                    
                                                                                                    
                                                                                                    
                                                                                                    
                                                                                                    
                                                                                                    
                           
<?xpacket end="w"?></metadata>
<defs>
    <style>
      .cls-1 {
        fill: #fff;
        fill-rule: evenodd;
      }
    </style>
  </defs>
  <path class="cls-1" d="M43.912,14.666H16.318a2.3,2.3,0,1,0,0,4.6H43.912A2.3,2.3,0,1,0,43.912,14.666Zm-9.2,9.2h-18.4a2.3,2.3,0,0,0,0,4.6h18.4A2.3,2.3,0,1,0,34.714,23.864Zm16.1-23H9.419a9.207,9.207,0,0,0-9.2,9.2V56.057a2.3,2.3,0,0,0,1.325,2.083,2.335,2.335,0,0,0,.975.216,2.3,2.3,0,0,0,1.472-.534L17.15,46.859H50.811a9.207,9.207,0,0,0,9.2-9.2V10.067A9.207,9.207,0,0,0,50.811.869Zm4.6,36.792a4.6,4.6,0,0,1-4.6,4.6H16.318a2.3,2.3,0,0,0-1.472.534L4.82,51.15V10.067a4.6,4.6,0,0,1,4.6-4.6H50.811a4.6,4.6,0,0,1,4.6,4.6V37.661Zm9.2-18.4a2.3,2.3,0,0,0,0,4.6,4.6,4.6,0,0,1,4.6,4.6v38.9l-7.763-6.208a2.316,2.316,0,0,0-1.435-.5H27.815a4.6,4.6,0,0,1-4.6-4.6v-2.3a2.3,2.3,0,0,0-4.6,0v2.3a9.207,9.207,0,0,0,9.2,9.2H59.2l10.868,8.7a2.3,2.3,0,0,0,3.739-1.8V28.463A9.208,9.208,0,0,0,64.608,19.265Z"/>
</svg>
