<svg xmlns="http://www.w3.org/2000/svg" width="30" height="30" viewBox="0 0 80 80">
  <metadata><?xpacket begin="﻿" id="W5M0MpCehiHzreSzNTczkc9d"?>
<x:xmpmeta xmlns:x="adobe:ns:meta/" x:xmptk="Adobe XMP Core 5.6-c138 79.159824, 2016/09/14-01:09:01        ">
   <rdf:RDF xmlns:rdf="http://www.w3.org/1999/02/22-rdf-syntax-ns#">
      <rdf:Description rdf:about=""/>
   </rdf:RDF>
</x:xmpmeta>
                                                                                                    
                                                                                                    
                                                                                                    
                                                                                                    
                                                                                                    
                                                                                                    
                                                                                                    
                                                                                                    
                                                                                                    
                                                                                                    
                                                                                                    
                                                                                                    
                                                                                                    
                                                                                                    
                                                                                                    
                                                                                                    
                                                                                                    
                                                                                                    
                                                                                                    
                                                                                                    
                           
<?xpacket end="w"?></metadata>
<defs>
    <style>
      .cls-1 {
        fill: #fff;
        fill-rule: evenodd;
      }
    </style>
  </defs>
  <path class="cls-1" d="M40,79.833a39.4,39.4,0,1,1,39.4-39.4A39.443,39.443,0,0,1,40,79.833ZM40,6.664a33.77,33.77,0,1,0,33.77,33.77A33.809,33.809,0,0,0,40,6.664ZM54.071,57.32a2.8,2.8,0,0,1-1.99-.825L23.94,28.353a2.814,2.814,0,0,1,3.979-3.979L56.06,52.516A2.814,2.814,0,0,1,54.071,57.32Zm-28.142,0a2.814,2.814,0,0,1-1.989-4.8L52.081,24.374a2.814,2.814,0,0,1,3.979,3.979L27.919,56.495A2.8,2.8,0,0,1,25.929,57.32Z"/>
</svg>
