<svg xmlns="http://www.w3.org/2000/svg" width="70px" height="50px">
    <path fill="#92B116" fill-rule="evenodd" d="M111.238 13.044L100.789 66.44v13.447c0 1.902-1.545 3.444-3.451 3.444H14.532c-1.906 0-3.451-1.542-3.451-3.444V66.429L.954 13.024c-.259-1.364.326-2.748 1.484-3.514 1.159-.766 2.663-.763 3.82.006l28.181 18.759L53.227.136h5.741l18.787 28.141 28.182-18.761c1.159-.771 2.669-.771 3.828 0 1.159.771 1.74 2.163 1.473 3.528zM78.712 35.92c-1.585 1.056-3.727.628-4.783-.955L56.097 8.258 38.266 34.965c-1.056 1.583-3.198 2.011-4.784.955L9.261 19.797l8.129 42.864h23.364c1.906 0 3.451 1.542 3.451 3.445 0 1.903-1.545 3.445-3.451 3.445H17.982v6.891h75.906v-6.891H71.806c-1.906 0-3.451-1.542-3.451-3.445 0-1.903 1.545-3.445 3.451-3.445h22.691l8.381-42.827L78.712 35.92zM56.279 69.551c-1.904 0-3.45-1.542-3.45-3.445 0-1.903 1.546-3.445 3.45-3.445 1.906 0 3.451 1.542 3.451 3.445 0 1.903-1.545 3.445-3.451 3.445z"/>
</svg>
