<svg width="24" height="24" viewBox="0 0 24 24" fill="none" xmlns="http://www.w3.org/2000/svg">
<path fill-rule="evenodd" clip-rule="evenodd" d="M21.9419 23.9423C17.5427 23.9458 13.1432 23.959 8.74371 23.9375C6.48229 23.9267 4.22122 23.8575 1.96015 23.8018C0.81574 23.7737 0.00442501 22.91 0.00301953 21.7225C-0.00189966 17.309 0.000911304 12.895 0.000911304 8.48148C0.000911304 6.382 -0.00154829 4.28252 0.00161405 2.18304C0.00372227 0.801826 0.812226 0.00286957 2.20963 0.00182609C5.14287 -0.000608696 8.07576 -0.000608696 11.0086 0.00182609C12.3755 0.00286957 13.1945 0.804957 13.1987 2.15139C13.2044 3.95313 13.2005 5.75487 13.2005 7.55661V8.13191H17.6643C17.5592 6.84704 17.7915 5.77539 19.4503 5.96043C20.7915 6.11 20.6928 7.15244 20.6935 8.14687C21.1777 8.14687 21.6232 8.14026 22.0684 8.14826C23.197 8.16878 23.9918 8.94304 23.9942 10.0606C24.002 14.0446 24.0016 18.0286 23.9949 22.0126C23.9928 23.2022 23.2001 23.9413 21.9419 23.9423V23.9423ZM6.2915 21.8683C6.2922 22.7834 6.66606 23.1497 7.60562 23.15C12.3692 23.1521 17.1323 23.1524 21.8959 23.1497C22.8172 23.1493 23.197 22.7663 23.1973 21.8498C23.1991 19.3716 23.1973 16.8933 23.1966 14.415V12.6234H6.31293C6.3045 12.8046 6.29185 12.95 6.2915 13.0954C6.29044 16.0196 6.28939 18.9441 6.2915 21.8683V21.8683ZM4.19698 11.23C4.60668 11.4839 4.98299 11.791 5.49072 12.1622C5.49072 11.4185 5.49213 10.8623 5.49037 10.3058C5.4851 8.81783 6.19452 8.10826 7.68011 8.11557C8.17519 8.118 8.66992 8.11591 9.14814 8.11591L9.37372 6.28913C8.91026 5.78617 8.26761 5.39939 7.48651 5.25887C7.19241 5.206 6.93661 5.10478 7.00724 4.76357C7.08384 4.39522 7.38426 4.48113 7.6499 4.53678C8.45207 4.70443 9.16817 5.05226 9.7402 5.63104C10.0006 5.8947 10.2571 5.97017 10.6134 5.96078C11.7209 5.93157 12.1875 6.40843 12.1949 7.51139C12.1963 7.71661 12.2254 7.92217 12.2416 8.12739L12.3639 8.11383V4.01052H0.831551V19.0192H5.46472V18.2512H4.02832C3.54519 18.2512 3.0617 18.261 2.57892 18.2488C1.97842 18.2338 1.61862 17.9117 1.60667 17.3462C1.58875 16.4874 1.58805 15.6272 1.60808 14.7684C1.62038 14.2467 1.97069 13.9232 2.50302 13.8909C2.73563 13.877 2.96929 13.8877 3.2026 13.8877L5.51602 13.8874C5.64146 12.9594 5.62706 12.9848 4.90323 12.5827C4.47245 12.3437 4.06592 12.0401 3.70963 11.7023C3.56275 11.5629 3.57646 11.2571 3.51708 11.0269C3.74582 11.0916 4.00337 11.11 4.19698 11.23V11.23ZM9.98124 7.32496C9.98475 8.14826 9.98616 8.97157 9.98405 9.79522C9.983 10.2783 10.2929 10.3427 10.685 10.3444C11.081 10.3465 11.3867 10.2672 11.3902 9.79383C11.393 9.382 11.3906 8.97052 11.3906 8.5587H11.393C11.393 8.14687 11.3952 7.73539 11.3923 7.32357C11.3895 6.83104 11.0786 6.74026 10.6583 6.742C10.2444 6.74339 9.97948 6.86583 9.98124 7.32496V7.32496ZM5.14111 15.0797C5.39866 15.0818 5.57927 15.0446 5.44294 14.7211H2.43275V17.4171H5.4598V15.854H2.82839V15.0777C3.61897 15.0777 4.38004 15.0735 5.14111 15.0797ZM0.812929 21.919C0.839984 22.5117 1.31469 22.9879 1.91447 23.0004C3.16079 23.0262 4.40815 23.0081 5.53956 23.0081V19.838H0.80555C0.80555 20.5726 0.782008 21.247 0.812929 21.919V21.919ZM12.398 2.0707C12.3818 1.28252 11.911 0.807391 11.1204 0.796609C10.3881 0.786522 9.65587 0.79487 8.92326 0.79487C6.66008 0.794522 4.39656 0.791044 2.13303 0.796261C1.27849 0.798348 0.812226 1.26896 0.801333 2.11626C0.796765 2.44496 0.800631 2.7733 0.800631 3.13957H12.399C12.399 2.75974 12.405 2.41504 12.398 2.0707V2.0707ZM19.1822 6.73852C18.7543 6.74026 18.4644 6.84183 18.4679 7.3347C18.4735 8.14165 18.476 8.94826 18.4686 9.75522C18.4647 10.2164 18.7195 10.3434 19.1358 10.3423C19.5445 10.3413 19.8772 10.2825 19.8793 9.77678C19.8815 9.36496 19.8797 8.95348 19.8797 8.54165H19.8829C19.8829 8.14652 19.8808 7.75139 19.8836 7.35626C19.8867 6.88287 19.625 6.73713 19.1822 6.73852V6.73852ZM23.1917 9.99244C23.1759 9.48496 22.8667 9.05365 22.3832 8.99626C21.8344 8.93052 21.2711 8.98096 20.7198 8.98096C20.5515 10.6888 20.3284 11.0982 19.4668 11.1131C19.0512 11.1204 18.5807 11.078 18.2265 10.8891C17.4559 10.4783 17.736 9.64252 17.6408 8.96252H12.2318C12.061 10.6857 11.8372 11.102 10.983 11.1117C10.5529 11.1166 10.0621 11.0651 9.70225 10.8606C8.97597 10.447 9.24371 9.63278 9.1499 8.94722C8.49529 8.94722 7.88075 8.92044 7.27006 8.95591C6.79536 8.98374 6.39972 9.26548 6.34807 9.72739C6.27287 10.4036 6.32874 11.0937 6.32874 11.7653H23.1959C23.1959 11.1469 23.2096 10.5691 23.1917 9.99244ZM8.29044 2.38339C7.70928 2.3827 7.12776 2.38339 6.54624 2.38339V2.38096C5.9981 2.38096 5.44751 2.41052 4.90358 2.36357C4.72895 2.34861 4.46156 2.15278 4.43064 2.00078C4.3702 1.70235 4.61968 1.58757 4.90885 1.58791C6.03851 1.5893 7.16852 1.57261 8.29712 1.60426C8.46543 1.60913 8.73844 1.81609 8.76901 1.96774C8.82874 2.26478 8.57822 2.38374 8.29044 2.38339ZM5.17871 17.0342H2.82452V16.3027H5.17871V17.0342V17.0342ZM2.8948 6.8307C2.8948 6.6147 3.07435 6.43939 3.29571 6.43939C3.51708 6.43939 3.69627 6.6147 3.69627 6.8307C3.69627 7.04704 3.51708 7.222 3.29571 7.222C3.07435 7.222 2.8948 7.04704 2.8948 6.8307ZM4.29466 5.24391C4.51602 5.24391 4.69557 5.42165 4.69557 5.64078C4.69557 5.85957 4.51602 6.0373 4.29466 6.0373C4.0733 6.0373 3.8941 5.85957 3.8941 5.64078C3.8941 5.42165 4.0733 5.24391 4.29466 5.24391V5.24391ZM5.70014 4.45052C5.9215 4.45052 6.10105 4.62791 6.10105 4.84704C6.10105 5.06617 5.9215 5.24391 5.70014 5.24391C5.47878 5.24391 5.29958 5.06617 5.29958 4.84704C5.29958 4.62791 5.47878 4.45052 5.70014 4.45052ZM3.20225 8.41226C3.20225 8.63139 3.0227 8.80913 2.80133 8.80913C2.57997 8.80913 2.40077 8.63139 2.40077 8.41226C2.40077 8.19313 2.57997 8.01574 2.80133 8.01574C3.0227 8.01574 3.20225 8.19313 3.20225 8.41226ZM2.99916 9.60252C3.22052 9.60252 3.39972 9.78026 3.39972 9.99939C3.39972 10.2185 3.22052 10.3959 2.99916 10.3959C2.77779 10.3959 2.59824 10.2185 2.59824 9.99939C2.59824 9.78026 2.77779 9.60252 2.99916 9.60252V9.60252ZM9.19663 19.8564C10.6274 19.861 10.703 19.9364 10.7117 21.3695C10.7198 22.7594 10.6281 22.8502 9.21771 22.8467C7.77779 22.8432 7.69698 22.7632 7.69698 21.341C7.69733 19.9663 7.81328 19.8519 9.19663 19.8564V19.8564ZM8.53781 22.0255H9.87794V20.6853H8.53781V22.0255ZM12.9046 19.8561C14.3045 19.8623 14.3987 19.957 14.3987 21.3531C14.399 22.766 14.3207 22.8439 12.9096 22.8446C11.4605 22.845 11.4018 22.7869 11.3941 21.3343C11.3864 19.9608 11.4999 19.8498 12.9046 19.8561V19.8561ZM12.217 22.0206H13.5645V20.6731H12.217V22.0206ZM13.5768 19.5486C13.1625 19.5643 12.7472 19.5587 12.3326 19.5517C11.6794 19.5413 11.4078 19.2662 11.3948 18.6126C11.3909 18.415 11.3945 18.2175 11.3945 18.0199C11.3945 17.8554 11.3923 17.6909 11.3948 17.5263C11.4039 16.847 11.678 16.5737 12.3642 16.5663C12.7623 16.5622 13.1608 16.5545 13.5585 16.5695C14.0916 16.589 14.3783 16.8763 14.3948 17.4095C14.4089 17.8533 14.411 18.2985 14.3941 18.742C14.3748 19.2422 14.0817 19.5295 13.5768 19.5486V19.5486ZM13.5642 17.3834H12.2205V18.7263H13.5642V17.3834ZM16.6067 13.2763C18.0129 13.2839 18.0895 13.3604 18.0954 14.7629C18.1014 16.1691 17.9932 16.2759 16.5719 16.27C15.1801 16.2641 15.0926 16.1764 15.0845 14.7782C15.0761 13.3601 15.1692 13.2683 16.6067 13.2763V13.2763ZM15.9141 15.4422H17.2581V14.0957H15.9141V15.4422ZM17.1404 19.5552C16.7753 19.5601 16.4099 19.5577 16.0448 19.5524C15.3639 19.5427 15.0961 19.27 15.0877 18.5827C15.0852 18.4015 15.0874 18.2203 15.087 18.039C15.0874 16.6575 15.1727 16.573 16.5856 16.565C16.768 16.5639 16.9507 16.5629 17.1334 16.5663C17.8136 16.5792 18.0845 16.8512 18.0944 17.5385C18.0997 17.9006 18.1007 18.263 18.0944 18.6251C18.0831 19.2669 17.7964 19.5462 17.1404 19.5552V19.5552ZM17.2606 17.3977H15.898V18.7159H17.2606V17.3977ZM16.5515 19.8564H16.6014C17.99 19.8561 18.0958 19.9622 18.0958 21.3545C18.0958 22.7587 18.0097 22.8446 16.6021 22.8446C15.1541 22.8446 15.087 22.7775 15.087 21.3302C15.087 19.9629 15.1928 19.8564 16.5515 19.8564V19.8564ZM15.9159 22.0164H17.2557V20.6759H15.9159V22.0164ZM19.7437 16.5643C19.9426 16.5625 20.1418 16.5643 20.341 16.5643V16.5657C20.5238 16.5657 20.7065 16.5608 20.8888 16.5667C21.4784 16.5851 21.768 16.869 21.7834 17.4582C21.7943 17.8697 21.7971 18.2818 21.7852 18.693C21.7694 19.2463 21.4721 19.5378 20.912 19.5507C20.464 19.5608 20.015 19.566 19.5677 19.5462C19.0845 19.525 18.8049 19.2443 18.7831 18.7636C18.7648 18.3528 18.7736 17.9403 18.7781 17.5288C18.7855 16.8474 19.0652 16.5705 19.7437 16.5643ZM19.6134 18.7173H20.9584V17.3837H19.6134V18.7173ZM20.2834 19.855C21.6868 19.8637 21.7764 19.9524 21.7873 21.349C21.789 21.5309 21.7919 21.7128 21.7873 21.8943C21.7704 22.5535 21.5002 22.8286 20.8449 22.8443C20.4956 22.8526 20.1453 22.847 19.7957 22.8439C19.0339 22.837 18.7803 22.5837 18.7774 21.8324C18.7767 21.6672 18.7774 21.502 18.7774 21.3368C18.7669 19.9601 18.8832 19.846 20.2834 19.855V19.855ZM19.6165 22.0244H20.9545V20.6756H19.6165V22.0244ZM20.2725 16.2679C18.8495 16.2679 18.7767 16.1938 18.7771 14.742C18.7771 13.3444 18.846 13.2773 20.2799 13.2773C21.6882 13.2773 21.7859 13.3726 21.7859 14.7493C21.7859 16.1799 21.6984 16.2679 20.2725 16.2679ZM20.9524 14.0919H19.6197V15.446H20.9524V14.0919ZM13.5673 16.263C13.1197 16.2787 12.6706 16.279 12.223 16.2634C11.7001 16.245 11.4078 15.9399 11.3945 15.4126C11.3846 15.0178 11.3906 14.6223 11.3952 14.2272C11.4025 13.5545 11.6798 13.2863 12.3727 13.2777C12.555 13.2756 12.7377 13.2773 12.9201 13.2773L13.2687 13.277C14.172 13.2752 14.4025 13.5093 14.3994 14.4248C14.398 14.7705 14.4113 15.117 14.3934 15.4617C14.3677 15.958 14.0729 16.2453 13.5673 16.263V16.263ZM13.5712 14.0964H12.2314V15.4324H13.5712V14.0964ZM9.22017 19.5535C7.76866 19.5545 7.69838 19.4853 7.69979 18.0488C7.7012 16.6571 7.79361 16.5653 9.19452 16.5653C10.6327 16.5653 10.7117 16.6439 10.7114 18.0728C10.711 19.4742 10.6323 19.5528 9.22017 19.5535V19.5535ZM9.87302 17.3792H8.53711V18.7218H9.87302V17.3792ZM9.25952 16.2679C7.75777 16.2679 7.69979 16.2095 7.70014 14.6957C7.70014 14.5142 7.69522 14.3323 7.70155 14.1507C7.72087 13.583 7.99916 13.2964 8.56276 13.2804C8.96191 13.269 9.36212 13.2731 9.76163 13.2783C10.4261 13.2874 10.6984 13.5566 10.7103 14.2102C10.7142 14.4084 10.711 14.6067 10.7114 14.805C10.7114 16.1949 10.639 16.2679 9.25952 16.2679V16.2679ZM9.87372 14.1117H8.52797V15.4453H9.87372V14.1117Z" fill="#4E5253"/>
</svg>
