<svg xmlns="http://www.w3.org/2000/svg" width="16" height="16" viewBox="0 0 45 45">
  <metadata><?xpacket begin="﻿" id="W5M0MpCehiHzreSzNTczkc9d"?>
<x:xmpmeta xmlns:x="adobe:ns:meta/" x:xmptk="Adobe XMP Core 5.6-c138 79.159824, 2016/09/14-01:09:01        ">
   <rdf:RDF xmlns:rdf="http://www.w3.org/1999/02/22-rdf-syntax-ns#">
      <rdf:Description rdf:about=""/>
   </rdf:RDF>
</x:xmpmeta>
                                                                                                    
                                                                                                    
                                                                                                    
                                                                                                    
                                                                                                    
                                                                                                    
                                                                                                    
                                                                                                    
                                                                                                    
                                                                                                    
                                                                                                    
                                                                                                    
                                                                                                    
                                                                                                    
                                                                                                    
                                                                                                    
                                                                                                    
                                                                                                    
                                                                                                    
                                                                                                    
                           
<?xpacket end="w"?></metadata>
<defs>
    <style>
      .cls-1 {
        fill: #92b116;
        fill-rule: evenodd;
      }
    </style>
  </defs>
  <path class="cls-1" d="M24.374,16.192h7.876c-0.185-2.29.225-4.2,3.152-3.871,2.366,0.267,2.192,2.125,2.193,3.9,0.854,0,1.641-.012,2.426,0a3.292,3.292,0,0,1,3.4,3.409q0.021,10.652,0,21.3a3.289,3.289,0,0,1-3.622,3.44c-7.763.006-15.525,0.029-23.287-.009-3.99-.02-7.98-0.143-11.97-0.242a3.505,3.505,0,0,1-3.453-3.706q-0.013-11.8,0-23.6,0-5.614,0-11.227A3.554,3.554,0,0,1,4.981,1.7q7.762-.006,15.525,0A3.544,3.544,0,0,1,24.37,5.532c0.01,3.212,0,6.423,0,9.635C24.374,15.483,24.374,15.8,24.374,16.192ZM12.221,24.2c-0.015.323-.037,0.582-0.037,0.841q0,7.819,0,15.638c0,1.631.661,2.284,2.318,2.284q12.607,0.006,25.214,0c1.625,0,2.3-.683,2.3-2.317q0-6.626,0-13.252c0-1.051,0-2.1,0-3.194H12.221Zm-1.5,10.032H8.19c-0.852,0-1.705.017-2.557,0a1.559,1.559,0,0,1-1.715-1.608q-0.048-2.3,0-4.6A1.538,1.538,0,0,1,5.5,26.458c0.41-.025.823-0.006,1.234-0.006h4.082c0.222-1.654.2-1.609-1.081-2.326a10.513,10.513,0,0,1-2.106-1.57,2.729,2.729,0,0,1-.34-1.2,4.679,4.679,0,0,1,1.2.362c0.723,0.453,1.387,1,2.283,1.661,0-1.325,0-2.317,0-3.309-0.009-2.652,1.243-3.917,3.864-3.9,0.873,0,1.746,0,2.59,0l0.4-3.256a5.911,5.911,0,0,0-3.33-1.836c-0.52-.095-0.971-0.275-0.846-0.883,0.135-.657.665-0.5,1.133-0.4a7.084,7.084,0,0,1,3.688,1.951,1.856,1.856,0,0,0,1.541.588c1.954-.052,2.777.8,2.791,2.764,0,0.366.053,0.732,0.082,1.1L22.9,16.16V8.845H2.55V35.6h8.174V34.23ZM22.665,17.673c-0.3,3.071-.7,3.813-2.2,3.831a4.6,4.6,0,0,1-2.26-.448c-1.282-.737-0.809-2.188-0.975-3.41-1.155,0-2.24-.048-3.317.015a1.61,1.61,0,0,0-1.627,1.375,33.166,33.166,0,0,0-.034,3.632H42.01c0-1.1.024-2.132-.007-3.16a1.724,1.724,0,0,0-1.427-1.776,24.636,24.636,0,0,0-2.935-.027c-0.3,3.044-.691,3.774-2.211,3.8a4.609,4.609,0,0,1-2.189-.4c-1.36-.732-0.865-2.222-1.033-3.434H22.665ZM2.495,7.294H22.96c0-.678.01-1.292,0-1.905A2.119,2.119,0,0,0,20.7,3.117c-1.292-.018-2.584,0-3.876,0-3.994,0-7.988-.007-11.981,0A2.138,2.138,0,0,0,2.5,5.47C2.488,6.055,2.495,6.641,2.495,7.294ZM2.5,37.058c0,1.31-.042,2.512.013,3.71A2,2,0,0,0,4.46,42.7c2.2,0.046,4.4.014,6.4,0.014V37.058H2.5ZM21.18,16.953h0c0-.734,0-1.468,0-2.2-0.005-.878-0.554-1.039-1.3-1.037a0.967,0.967,0,0,0-1.195,1.039q0.009,2.2.005,4.4c0,0.861.545,0.976,1.236,0.979s1.238-.138,1.244-0.982C21.184,18.421,21.18,17.687,21.18,16.953Zm14.979-.03h0.005c0-.7,0-1.409,0-2.113a1.008,1.008,0,0,0-1.237-1.1c-0.755,0-1.267.184-1.26,1.063,0.01,1.438.014,2.877,0,4.315a0.954,0.954,0,0,0,1.177,1.047c0.721,0,1.308-.107,1.312-1.008C36.161,18.39,36.159,17.656,36.159,16.923ZM10.686,27.938H5.375v4.806h5.341V29.957H6.073V28.573c1.395,0,2.738-.007,4.08,0C10.608,28.58,10.927,28.514,10.686,27.938Zm10.5,5.88c0-.293,0-0.587,0-0.88A1.471,1.471,0,0,1,22.9,31.227c0.7-.008,1.406-0.021,2.107.005a1.383,1.383,0,0,1,1.476,1.5c0.024,0.791.028,1.585,0,2.375a1.367,1.367,0,0,1-1.442,1.437c-0.731.028-1.463,0.018-2.195,0.006a1.449,1.449,0,0,1-1.655-1.674C21.181,34.522,21.187,34.17,21.187,33.818Zm1.458-1.135v2.394h2.371V32.683H22.644Zm-2.663-4.6c0,2.478-.128,2.608-2.562,2.608-2.65,0-2.752-.1-2.751-2.8,0-.324-0.008-0.648,0-0.971a1.4,1.4,0,0,1,1.52-1.551c0.7-.02,1.41-0.012,2.116,0a1.444,1.444,0,0,1,1.674,1.661C19.987,27.38,19.981,27.733,19.981,28.087ZM18.5,29.228V26.851H16.129v2.377H18.5Zm5.376-3.864h0.615c1.594,0,2,.414,1.995,2.046,0,0.616.021,1.234-.01,1.849a1.38,1.38,0,0,1-1.458,1.428c-0.79.028-1.582,0.029-2.372,0a1.4,1.4,0,0,1-1.462-1.516c-0.018-.7-0.007-1.409,0-2.113a1.467,1.467,0,0,1,1.725-1.692C23.235,25.361,23.557,25.364,23.879,25.364Zm-1.216,1.46v2.381h2.364V26.824H22.664Zm7.72-1.462c2.481,0.014,2.616.15,2.627,2.65s-0.18,2.7-2.688,2.686c-2.456-.01-2.61-0.167-2.624-2.659C27.683,25.511,27.847,25.348,30.384,25.362Zm-1.222,1.46v2.4h2.372v-2.4H29.162ZM27.7,33.852c0-2.463.151-2.613,2.644-2.628,0.322,0,.644,0,0.966,0a1.478,1.478,0,0,1,1.7,1.733c0.009,0.646.011,1.291,0,1.937a1.461,1.461,0,0,1-1.683,1.658c-0.644.009-1.289,0-1.933,0A1.467,1.467,0,0,1,27.7,34.82C27.7,34.5,27.7,34.175,27.7,33.852Zm1.431,1.206h2.4V32.709h-2.4v2.349Zm-9.151-1.146c0,2.5-.14,2.638-2.631,2.64-2.561,0-2.684-.122-2.682-2.682,0-2.481.165-2.644,2.637-2.644C19.843,31.225,19.982,31.365,19.982,33.912Zm-3.836-1.237v2.394H18.5V32.675H16.145Zm20.828-1.45c0.322,0,.645-0.009.966,0a1.434,1.434,0,0,1,1.578,1.589c0.019,0.733.024,1.468,0,2.2a1.41,1.41,0,0,1-1.541,1.529c-0.79.018-1.583,0.027-2.372-.008a1.331,1.331,0,0,1-1.384-1.4c-0.033-.733-0.017-1.468-0.009-2.2a1.473,1.473,0,0,1,1.7-1.719c0.351,0,.7,0,1.055,0v0Zm-1.284,1.458V35.06h2.373V32.683H35.689ZM17.346,42.422c-2.541-.006-2.684-0.149-2.683-2.684,0-2.45.2-2.654,2.646-2.647,2.524,0.008,2.658.143,2.673,2.7C20,42.266,19.835,42.428,17.346,42.422Zm1.165-1.464V38.569H16.146v2.389h2.365Zm15.7-12.983c0-2.491.121-2.611,2.651-2.611,2.485,0,2.657.17,2.657,2.624,0,2.55-.155,2.707-2.67,2.707S34.213,30.563,34.213,27.975ZM35.7,26.816v2.413h2.352V26.816H35.7ZM26.488,39.759c0,2.518-.138,2.658-2.628,2.659-2.557,0-2.66-.1-2.674-2.692-0.013-2.448.187-2.646,2.666-2.635S26.488,37.271,26.488,39.759Zm-3.85-1.212v2.4h2.378v-2.4H22.638Zm10.373,1.215c0,2.5-.152,2.656-2.636,2.656-2.555,0-2.673-.12-2.673-2.7,0-2.437.186-2.627,2.584-2.627h0.088C32.824,37.091,33.011,37.28,33.011,39.762Zm-3.846,1.18h2.364V38.552H29.165v2.389Zm5.049-1.211c-0.018-2.454.187-2.658,2.657-2.642s2.634,0.174,2.654,2.664c0,0.324.008,0.648,0,.972a1.469,1.469,0,0,1-1.662,1.693c-0.617.015-1.234,0.005-1.852,0-1.344-.013-1.792-0.464-1.8-1.8C34.213,40.319,34.214,40.025,34.214,39.73Zm1.48-1.179v2.4h2.361v-2.4H35.694ZM12.633,5.941c-0.967,0-1.939.053-2.9-.031A1.13,1.13,0,0,1,8.9,5.263c-0.107-.532.333-0.737,0.844-0.736,1.993,0,3.987-.027,5.978.029a1.108,1.108,0,0,1,.833.648c0.106,0.53-.337.742-0.844,0.741q-1.539,0-3.077,0v0ZM10.219,30.757v1.3H6.066v-1.3h4.153ZM11.151,9.643a0.7,0.7,0,1,1-.7.7A0.7,0.7,0,0,1,11.151,9.643Zm-2.489,1.4a0.7,0.7,0,1,1-.719.7A0.71,0.71,0,0,1,8.662,11.044Zm-1.77,2.139a0.7,0.7,0,1,1-.719.7A0.71,0.71,0,0,1,6.892,13.183Zm-0.867,2.8a0.7,0.7,0,1,1-.7.7A0.7,0.7,0,0,1,6.025,15.985Zm0.35,2.839a0.7,0.7,0,1,1-.719.7A0.71,0.71,0,0,1,6.375,18.825Z"/>
</svg>
