<svg width="24" height="24" viewBox="0 0 24 24" fill="none" xmlns="http://www.w3.org/2000/svg">
<path fill-rule="evenodd" clip-rule="evenodd" d="M11.5665 5.37063C11.5237 5.59304 11.3135 5.73658 11.0985 5.69336C10.8822 5.64982 10.7415 5.43499 10.7837 5.21321C10.9791 4.19013 11.6098 3.32573 12.5138 2.84147C12.7089 2.73674 12.9498 2.81434 13.0517 3.01467C13.1538 3.215 13.0782 3.46201 12.8828 3.56643C12.2049 3.92954 11.7126 4.60403 11.5665 5.37063ZM13.8828 14.3213C13.7055 14.3213 13.5437 14.1995 13.4972 14.0152C13.4418 13.7966 13.5695 13.5733 13.7828 13.5165C14.3649 13.3613 14.9717 13.242 15.5862 13.1625C15.8052 13.1341 16.004 13.2928 16.0317 13.5168C16.0591 13.7411 15.9046 13.9455 15.6862 13.9739C14.5757 14.1178 14.0062 14.3213 13.8828 14.3213ZM15.6862 17.7435C15.1052 17.8189 14.5323 17.9312 13.9834 18.0779C13.7708 18.1347 13.5526 18.0041 13.4969 17.7848C13.4415 17.5665 13.5695 17.3432 13.7825 17.2864C14.3646 17.1309 14.9714 17.0116 15.5862 16.9321C15.8049 16.9037 16.004 17.0627 16.0317 17.2867C16.0591 17.5107 15.9043 17.7154 15.6862 17.7435ZM8.336 16.9321C8.95077 17.0116 9.55754 17.1309 10.1394 17.2864C10.3526 17.3432 10.4803 17.5665 10.4249 17.7848C10.3785 17.9691 10.2166 18.0912 10.0394 18.0912C9.89108 18.0912 9.39508 17.894 8.236 17.7435C8.01754 17.7154 7.86277 17.5107 7.89046 17.2867C7.91815 17.0627 8.11723 16.9037 8.336 16.9321ZM8.336 13.1625C8.95046 13.242 9.55723 13.3613 10.1394 13.5165C10.3526 13.5733 10.4803 13.7966 10.4249 14.0152C10.3782 14.1992 10.2166 14.3213 10.0394 14.3213C9.89077 14.3213 9.39477 14.1241 8.236 13.9739C8.01754 13.9455 7.86277 13.7411 7.89046 13.5168C7.91815 13.2928 8.11723 13.1344 8.336 13.1625ZM23.9218 11.8823C23.9218 13.3098 23.2126 14.6077 22.0246 15.3544C21.8366 15.4724 21.5914 15.4119 21.4763 15.2191C21.3612 15.0267 21.4203 14.7749 21.608 14.6569C22.5575 14.0604 23.1246 13.0228 23.1246 11.8823C23.1246 10.0122 21.5772 8.50455 19.7265 8.64052C19.4471 8.66039 19.2351 8.38751 19.3166 8.11304C20.3963 4.48699 17.7415 0.818024 14.0538 0.818024C11.4295 0.818024 9.15908 2.73264 8.65508 5.37063C8.61169 5.59872 8.39169 5.74383 8.17169 5.68989C6.196 5.20721 4.30369 6.8196 4.44215 8.92728C4.45908 9.18408 4.24277 9.39355 3.99292 9.36043C2.28031 9.1314 0.797539 10.5047 0.797539 12.2341C0.797539 13.8032 2.01938 15.0847 3.53846 15.1311V12.1656C3.53846 11.4892 4.07508 10.9387 4.73477 10.9387H5.55969V10.6002C5.55969 9.82575 6.17692 9.19102 6.93538 9.18566C8.73138 9.17241 10.5046 9.61659 11.9612 10.4378C13.4178 9.61659 15.1911 9.17367 16.9868 9.18566C17.7452 9.19102 18.3625 9.82575 18.3625 10.6002V20.0875C18.3625 20.8696 17.7458 21.5059 16.9806 21.5014C15.5843 21.4914 14.148 21.7939 12.9348 22.352C12.316 22.6365 11.6062 22.6365 10.9874 22.352C9.77415 21.7939 8.33754 21.491 6.94154 21.5014C6.14615 21.5014 5.55969 20.8424 5.55969 20.0875V13.7402C5.55969 13.5143 5.73846 13.3313 5.95846 13.3313C6.17877 13.3313 6.35723 13.5143 6.35723 13.7402V20.0875C6.35723 20.4282 6.63169 20.6891 6.936 20.6834C8.44492 20.6733 9.99846 21.0005 11.3135 21.6056C11.7249 21.7948 12.1969 21.7948 12.6083 21.6056C13.8797 21.0207 15.3812 20.6834 16.9898 20.6834C17.3065 20.6834 17.5649 20.4168 17.5649 20.0875V10.6002C17.5649 10.2737 17.3031 10.0059 16.9812 10.0037C15.3843 9.99169 13.7385 10.3737 12.3597 11.1476V19.6411C12.3597 19.8673 12.1812 20.0503 11.9609 20.0503C11.7409 20.0503 11.5625 19.8673 11.5625 19.6411V11.1476C10.2265 10.3977 8.59692 9.99138 6.94092 10.0037C6.61908 10.0059 6.35723 10.2734 6.35723 10.6002V11.3476C6.35723 11.5738 6.17877 11.7568 5.95846 11.7568H4.73477C4.51477 11.7568 4.336 11.9404 4.336 12.1656V22.7728C4.336 22.9984 4.51477 23.182 4.73477 23.182H19.1874C19.4074 23.182 19.5862 22.9984 19.5862 22.7728V12.1656C19.5862 12.0448 19.5345 11.9306 19.444 11.8524C19.2754 11.7072 19.2538 11.4492 19.3957 11.2763C19.5375 11.1034 19.7889 11.0813 19.9575 11.2268C20.2283 11.4609 20.3834 11.8028 20.3834 12.1656V22.7731C20.3834 23.4495 19.8471 24 19.1874 24H4.73477C4.07508 24 3.53846 23.4495 3.53846 22.7731V15.9491C1.57969 15.9021 0 14.2544 0 12.2341C0 10.1964 1.61631 8.50833 3.64154 8.51685C3.75262 6.23408 5.748 4.52358 7.96062 4.8195C8.67939 2.00389 11.1815 0 14.0538 0C18.0354 0 21.0594 3.77622 20.2135 7.82155C22.2809 7.95846 23.9218 9.72733 23.9218 11.8823Z" fill="#4E5253"/>
</svg>
