<svg xmlns="http://www.w3.org/2000/svg" width="10" height="10" viewBox="0 0 24 23">
  <metadata><?xpacket begin="﻿" id="W5M0MpCehiHzreSzNTczkc9d"?>
<x:xmpmeta xmlns:x="adobe:ns:meta/" x:xmptk="Adobe XMP Core 5.6-c138 79.159824, 2016/09/14-01:09:01        ">
   <rdf:RDF xmlns:rdf="http://www.w3.org/1999/02/22-rdf-syntax-ns#">
      <rdf:Description rdf:about=""/>
   </rdf:RDF>
</x:xmpmeta>
                                                                                                    
                                                                                                    
                                                                                                    
                                                                                                    
                                                                                                    
                                                                                                    
                                                                                                    
                                                                                                    
                                                                                                    
                                                                                                    
                                                                                                    
                                                                                                    
                                                                                                    
                                                                                                    
                                                                                                    
                                                                                                    
                                                                                                    
                                                                                                    
                                                                                                    
                                                                                                    
                           
<?xpacket end="w"?></metadata>
<defs>
    <style>
      .cls-1 {
        fill: #92b116;
        fill-rule: evenodd;
      }
    </style>
  </defs>
  <path class="cls-1" d="M20.656,1.089a3.127,3.127,0,0,0-4.417,0L15.133,2.2,3.362,13.963l-0.025.025A0.023,0.023,0,0,1,3.324,14c-0.013.019-.031,0.037-0.044,0.056s-0.006.006-.006,0.013-0.018.031-.031,0.05-0.006.012-.012,0.019-0.013.031-.019,0.05-0.006.006-.006,0.013L0.594,22.052a0.615,0.615,0,0,0,.15.637,0.628,0.628,0,0,0,.444.181,0.74,0.74,0,0,0,.2-0.031l7.847-2.617a0.013,0.013,0,0,0,.013-0.006A0.23,0.23,0,0,0,9.3,20.191a0.021,0.021,0,0,0,.013-0.006c0.019-.013.044-0.025,0.062-0.038s0.038-.031.056-0.044a0.024,0.024,0,0,0,.012-0.013,0.088,0.088,0,0,0,.025-0.025L22.349,7.192a3.125,3.125,0,0,0,0-4.416ZM9.035,18.754L4.687,14.407,15.57,3.525l4.348,4.347ZM4.074,15.562l3.8,3.8-5.7,1.9ZM21.468,6.317l-0.662.669L16.457,2.638l0.669-.668a1.874,1.874,0,0,1,2.649,0l1.7,1.7A1.88,1.88,0,0,1,21.468,6.317Z"/>
</svg>
