<svg xmlns="http://www.w3.org/2000/svg" width="24" height="24" viewBox="0 0 58 58">
  <metadata><?xpacket begin="﻿" id="W5M0MpCehiHzreSzNTczkc9d"?>
<x:xmpmeta xmlns:x="adobe:ns:meta/" x:xmptk="Adobe XMP Core 5.6-c138 79.159824, 2016/09/14-01:09:01        ">
   <rdf:RDF xmlns:rdf="http://www.w3.org/1999/02/22-rdf-syntax-ns#">
      <rdf:Description rdf:about=""/>
   </rdf:RDF>
</x:xmpmeta>
                                                                                                    
                                                                                                    
                                                                                                    
                                                                                                    
                                                                                                    
                                                                                                    
                                                                                                    
                                                                                                    
                                                                                                    
                                                                                                    
                                                                                                    
                                                                                                    
                                                                                                    
                                                                                                    
                                                                                                    
                                                                                                    
                                                                                                    
                                                                                                    
                                                                                                    
                                                                                                    
                           
<?xpacket end="w"?></metadata>
<defs>
    <style>
      .cls-1 {
        fill: #f32340;
        fill-rule: evenodd;
      }
    </style>
  </defs>
  <path class="cls-1" d="M29.335,54a3.311,3.311,0,0,1-2.184-.822c-2.282-2-4.483-3.875-6.424-5.531l-0.01-.009C15.025,42.782,10.11,38.589,6.69,34.458c-3.823-4.618-5.6-9-5.6-13.78A17.688,17.688,0,0,1,5.568,8.605a15.185,15.185,0,0,1,11.3-4.924,14.2,14.2,0,0,1,8.877,3.068A18.171,18.171,0,0,1,29.335,10.5a18.17,18.17,0,0,1,3.589-3.751A14.2,14.2,0,0,1,41.8,3.681,15.186,15.186,0,0,1,53.1,8.605a17.688,17.688,0,0,1,4.482,12.073c0,4.783-1.78,9.162-5.6,13.779-3.42,4.131-8.335,8.324-14.026,13.179-1.945,1.659-4.149,3.539-6.436,5.542A3.313,3.313,0,0,1,29.335,54Z"/>
</svg>
