<svg xmlns="http://www.w3.org/2000/svg" width="24" height="24" viewBox="0 0 58 58">
  <metadata><?xpacket begin="﻿" id="W5M0MpCehiHzreSzNTczkc9d"?>
<x:xmpmeta xmlns:x="adobe:ns:meta/" x:xmptk="Adobe XMP Core 5.6-c138 79.159824, 2016/09/14-01:09:01        ">
   <rdf:RDF xmlns:rdf="http://www.w3.org/1999/02/22-rdf-syntax-ns#">
      <rdf:Description rdf:about=""/>
   </rdf:RDF>
</x:xmpmeta>
                                                                                                    
                                                                                                    
                                                                                                    
                                                                                                    
                                                                                                    
                                                                                                    
                                                                                                    
                                                                                                    
                                                                                                    
                                                                                                    
                                                                                                    
                                                                                                    
                                                                                                    
                                                                                                    
                                                                                                    
                                                                                                    
                                                                                                    
                                                                                                    
                                                                                                    
                                                                                                    
                           
<?xpacket end="w"?></metadata>
<defs>
    <style>
      .cls-1 {
        fill: #333;
        fill-rule: evenodd;
      }
    </style>
  </defs>
  <path class="cls-1" d="M29.335,54a3.311,3.311,0,0,1-2.184-.822c-2.282-2-4.483-3.875-6.424-5.532l-0.01-.009C15.025,42.782,10.11,38.589,6.69,34.458c-3.823-4.618-5.6-9-5.6-13.78A17.688,17.688,0,0,1,5.568,8.605a15.185,15.185,0,0,1,11.3-4.924,14.2,14.2,0,0,1,8.877,3.068A18.169,18.169,0,0,1,29.335,10.5a18.168,18.168,0,0,1,3.589-3.751A14.2,14.2,0,0,1,41.8,3.681,15.186,15.186,0,0,1,53.1,8.605a17.688,17.688,0,0,1,4.482,12.073c0,4.783-1.78,9.162-5.6,13.779-3.42,4.131-8.335,8.324-14.026,13.179-1.945,1.659-4.149,3.539-6.436,5.542A3.313,3.313,0,0,1,29.335,54ZM16.869,6.994A11.914,11.914,0,0,0,8,10.851,14.389,14.389,0,0,0,4.4,20.678C4.4,24.7,5.889,28.3,9.238,32.344c3.237,3.91,8.051,8.017,13.625,12.773l0.01,0.009c1.949,1.663,4.158,3.547,6.457,5.56,2.313-2.016,4.526-3.9,6.478-5.569C41.383,40.36,46.2,36.254,49.433,32.344c3.348-4.045,4.842-7.643,4.842-11.666a14.389,14.389,0,0,0-3.606-9.828A11.913,11.913,0,0,0,41.8,6.994a10.969,10.969,0,0,0-6.853,2.375,16.071,16.071,0,0,0-3.819,4.424,2.088,2.088,0,0,1-3.589,0,16.058,16.058,0,0,0-3.819-4.424A10.969,10.969,0,0,0,16.869,6.994Z"/>
</svg>
