<svg width="24" height="24" viewBox="0 0 24 24" fill="none" xmlns="http://www.w3.org/2000/svg">
<path fill-rule="evenodd" clip-rule="evenodd" d="M23.8794 10.457C23.7573 10.6444 23.568 10.7434 23.3757 10.7434C23.2481 10.7434 23.1189 10.6993 23.008 10.6079L12.0001 1.56662L0.992123 10.6083C0.714401 10.8365 0.324176 10.7686 0.120706 10.457C-0.0830851 10.1453 -0.0226549 9.70767 0.255389 9.47944L11.6317 0.135148C11.8509 -0.0450495 12.1492 -0.0450495 12.3684 0.135148L23.7448 9.47944C24.0228 9.70767 24.0829 10.1453 23.8794 10.457V10.457ZM3.26983 10.7665C3.61409 10.7665 3.89342 11.0799 3.89342 11.4663V22.601H8.88213V16.5227C8.88213 14.5943 10.2807 13.0249 12.0001 13.0249C13.7194 13.0249 15.1183 14.594 15.1183 16.5227V22.6007H20.1067V11.466C20.1067 11.0799 20.3861 10.7665 20.7303 10.7665C21.0746 10.7665 21.3539 11.0799 21.3539 11.4663V23.3005C21.3539 23.6869 21.0749 24 20.7303 24H14.4947C14.1666 24 13.8982 23.7154 13.8734 23.3543C13.8721 23.3381 13.8712 23.3207 13.8712 23.3005V16.5227C13.8712 15.3657 13.0319 14.4239 12.0001 14.4239C10.9683 14.4239 10.129 15.3657 10.129 16.5227V23.3005C10.129 23.3207 10.1283 23.3388 10.1267 23.355C10.102 23.7158 9.83358 24 9.50539 24H3.26983C2.92557 24 2.64624 23.6869 2.64624 23.3005V11.4663C2.64624 11.0799 2.92557 10.7665 3.26983 10.7665V10.7665Z" fill="#4E5253"/>
</svg>
