<svg xmlns="http://www.w3.org/2000/svg" width="24" height="24" viewBox="0 0 64 64">
  <metadata><?xpacket begin="﻿" id="W5M0MpCehiHzreSzNTczkc9d"?>
<x:xmpmeta xmlns:x="adobe:ns:meta/" x:xmptk="Adobe XMP Core 5.6-c138 79.159824, 2016/09/14-01:09:01        ">
   <rdf:RDF xmlns:rdf="http://www.w3.org/1999/02/22-rdf-syntax-ns#">
      <rdf:Description rdf:about=""/>
   </rdf:RDF>
</x:xmpmeta>
                                                                                                    
                                                                                                    
                                                                                                    
                                                                                                    
                                                                                                    
                                                                                                    
                                                                                                    
                                                                                                    
                                                                                                    
                                                                                                    
                                                                                                    
                                                                                                    
                                                                                                    
                                                                                                    
                                                                                                    
                                                                                                    
                                                                                                    
                                                                                                    
                                                                                                    
                                                                                                    
                           
<?xpacket end="w"?></metadata>
<defs>
    <style>
      .cls-1 {
        fill: #92b116;
        fill-rule: evenodd;
      }
    </style>
  </defs>
  <path id="_-e-Shape_15" data-name="-e-Shape 15" class="cls-1" d="M32.931,10.821H14.711a0.894,0.894,0,1,1,0-1.787H32.931A0.894,0.894,0,1,1,32.931,10.821Zm0,5.879H14.711a0.894,0.894,0,1,1,0-1.787H32.931A0.894,0.894,0,1,1,32.931,16.7Zm23.8-1.538L42.641,1.251A0.911,0.911,0,0,0,42,.99H12.11a4.078,4.078,0,0,0-4.1,4.048V57.945a4.078,4.078,0,0,0,4.1,4.048H52.893a4.078,4.078,0,0,0,4.1-4.048V15.793a0.887,0.887,0,0,0-.265-0.632h0ZM42.906,4.04l11,10.86H44.414a1.5,1.5,0,0,1-1.509-1.49V4.04Zm9.987,56.165H12.11A2.277,2.277,0,0,1,9.82,57.945V5.037A2.277,2.277,0,0,1,12.11,2.777H41.1V13.41a3.3,3.3,0,0,0,3.318,3.277H55.182V57.945a2.277,2.277,0,0,1-2.289,2.261h0Zm-5.031-7.7H17.141a3.318,3.318,0,0,1-3.334-3.293V40.638a0.9,0.9,0,0,1,1.81,0v8.578a1.517,1.517,0,0,0,1.525,1.506H47.861a1.517,1.517,0,0,0,1.525-1.506V40.65a0.9,0.9,0,0,1,1.81,0v8.565A3.318,3.318,0,0,1,47.861,52.508Zm2.429-15.119a0.9,0.9,0,0,1-.9-0.893V27.9A1.517,1.517,0,0,0,47.861,26.4H17.141A1.517,1.517,0,0,0,15.616,27.9v8.563a0.9,0.9,0,0,1-1.81,0V27.9a3.318,3.318,0,0,1,3.334-3.293H47.861A3.318,3.318,0,0,1,51.2,27.9V36.5A0.9,0.9,0,0,1,50.291,37.389ZM32.5,48.245a9.687,9.687,0,1,1,9.809-9.687A9.759,9.759,0,0,1,32.5,48.245Zm0-17.586a7.9,7.9,0,1,0,8,7.9,7.959,7.959,0,0,0-8-7.9h0ZM30.313,43.484a1.756,1.756,0,0,1-.861-0.227,1.7,1.7,0,0,1-.882-1.5v-6.4a1.7,1.7,0,0,1,.882-1.5,1.742,1.742,0,0,1,1.754.019l5.431,3.2a1.71,1.71,0,0,1,0,2.956l-5.431,3.2a1.754,1.754,0,0,1-.893.246h0Zm0.066-8.01v6.169l5.234-3.085Z"/>
</svg>
