<svg xmlns="http://www.w3.org/2000/svg" width="24" height="24" viewBox="0 0 64 64">
  <metadata><?xpacket begin="﻿" id="W5M0MpCehiHzreSzNTczkc9d"?>
<x:xmpmeta xmlns:x="adobe:ns:meta/" x:xmptk="Adobe XMP Core 5.6-c138 79.159824, 2016/09/14-01:09:01        ">
   <rdf:RDF xmlns:rdf="http://www.w3.org/1999/02/22-rdf-syntax-ns#">
      <rdf:Description rdf:about=""/>
   </rdf:RDF>
</x:xmpmeta>
                                                                                                    
                                                                                                    
                                                                                                    
                                                                                                    
                                                                                                    
                                                                                                    
                                                                                                    
                                                                                                    
                                                                                                    
                                                                                                    
                                                                                                    
                                                                                                    
                                                                                                    
                                                                                                    
                                                                                                    
                                                                                                    
                                                                                                    
                                                                                                    
                                                                                                    
                                                                                                    
                           
<?xpacket end="w"?></metadata>
<defs>
    <style>
      .cls-1 {
        fill: #92b116;
        fill-rule: evenodd;
      }
    </style>
  </defs>
  <path id="_-e-Shape_14" data-name="-e-Shape 14" class="cls-1" d="M53.789,62H12.211A2.217,2.217,0,0,1,9.988,59.8V43.147a0.9,0.9,0,0,1,1.8,0V59.8a0.416,0.416,0,0,0,.417.414H53.789a0.416,0.416,0,0,0,.417-0.414V3.206a0.416,0.416,0,0,0-.417-0.414H12.211a0.416,0.416,0,0,0-.417.414V38.959a0.9,0.9,0,0,1-1.8,0V3.206A2.217,2.217,0,0,1,12.211,1H53.789a2.217,2.217,0,0,1,2.222,2.206V59.8A2.217,2.217,0,0,1,53.789,62h0ZM16.732,13.966a0.9,0.9,0,0,0,1.165-.518l0.421-1.1h2.9l0.416,1.1a0.9,0.9,0,0,0,1.163.522,0.894,0.894,0,0,0,.526-1.154L20.766,6.086l-0.01-.025a1.055,1.055,0,0,0-.979-0.651h0a1.055,1.055,0,0,0-.978.653l-0.008.02L16.21,12.81a0.894,0.894,0,0,0,.522,1.156h0Zm3.043-5.414,0.762,2.006H19.005Zm6.992,5.23a2.745,2.745,0,0,0,1.054-.21,0.9,0.9,0,0,0,1.686-.444V9a0.9,0.9,0,0,0-1.686-.444A2.724,2.724,0,1,0,26.767,13.782Zm0-3.648a0.928,0.928,0,1,1-.935.928A0.933,0.933,0,0,1,26.767,10.134Zm5.811,3.891h16.37a0.9,0.9,0,1,0,0-1.792H32.577A0.9,0.9,0,1,0,32.577,14.025Zm16.37,2.42H17.053a0.9,0.9,0,1,0,0,1.792H48.947a0.9,0.9,0,1,0,0-1.792h0Zm-0.368,4.364H43.348a0.9,0.9,0,1,0,0,1.792h4.7v5.49H17.956V22.6H39.166a0.9,0.9,0,1,0,0-1.792H17.421a1.267,1.267,0,0,0-1.27,1.261v6.552a1.267,1.267,0,0,0,1.27,1.261H48.579a1.267,1.267,0,0,0,1.27-1.261V22.07a1.267,1.267,0,0,0-1.27-1.261h0ZM26.4,32.212H17.421a1.267,1.267,0,0,0-1.27,1.261V56.331a1.267,1.267,0,0,0,1.27,1.261H26.4a1.267,1.267,0,0,0,1.27-1.261V33.472a1.267,1.267,0,0,0-1.27-1.261h0ZM25.864,55.8H17.956V34h7.909V55.8ZM48.947,32.212H37.911a0.9,0.9,0,1,0,0,1.792H48.947A0.9,0.9,0,1,0,48.947,32.212Zm0,3.931H31.314a0.9,0.9,0,1,0,0,1.792H48.947a0.9,0.9,0,1,0,0-1.792h0Zm0,3.931H31.314a0.9,0.9,0,1,0,0,1.792H48.947a0.9,0.9,0,1,0,0-1.792h0Zm0,3.932H31.314a0.9,0.9,0,1,0,0,1.792H48.947a0.9,0.9,0,1,0,0-1.792h0Zm0,3.931H31.314a0.9,0.9,0,1,0,0,1.792H48.947a0.9,0.9,0,1,0,0-1.792h0Zm0,3.932H31.314a0.9,0.9,0,1,0,0,1.792H48.947a0.9,0.9,0,1,0,0-1.792h0ZM44.088,55.8H31.314a0.9,0.9,0,1,0,0,1.792H44.088A0.9,0.9,0,1,0,44.088,55.8Z"/>
</svg>
