<svg xmlns="http://www.w3.org/2000/svg" width="16" height="16" viewBox="0 0 45 45">
  <metadata><?xpacket begin="﻿" id="W5M0MpCehiHzreSzNTczkc9d"?>
<x:xmpmeta xmlns:x="adobe:ns:meta/" x:xmptk="Adobe XMP Core 5.6-c138 79.159824, 2016/09/14-01:09:01        ">
   <rdf:RDF xmlns:rdf="http://www.w3.org/1999/02/22-rdf-syntax-ns#">
      <rdf:Description rdf:about=""/>
   </rdf:RDF>
</x:xmpmeta>
                                                                                                    
                                                                                                    
                                                                                                    
                                                                                                    
                                                                                                    
                                                                                                    
                                                                                                    
                                                                                                    
                                                                                                    
                                                                                                    
                                                                                                    
                                                                                                    
                                                                                                    
                                                                                                    
                                                                                                    
                                                                                                    
                                                                                                    
                                                                                                    
                                                                                                    
                                                                                                    
                           
<?xpacket end="w"?></metadata>
<defs>
    <style>
      .cls-1 {
        fill: #92b116;
        fill-rule: evenodd;
      }
    </style>
  </defs>
  <path class="cls-1" d="M23,1.361A21.638,21.638,0,1,0,44.638,23,21.639,21.639,0,0,0,23,1.361ZM23,43.2A20.2,20.2,0,1,1,43.2,23,20.2,20.2,0,0,1,23,43.2Zm4.328-22a3.967,3.967,0,1,0-3.967-3.967A3.967,3.967,0,0,0,27.328,21.2Zm0-6.491A2.524,2.524,0,1,1,24.8,17.23,2.524,2.524,0,0,1,27.328,14.705ZM42.44,23.86a0.722,0.722,0,0,0-.25-0.354l-3.318-2.524a0.721,0.721,0,0,0-.721-0.089,0.71,0.71,0,0,0-.144.086A15.047,15.047,0,0,0,35.915,15.1,3.6,3.6,0,1,0,31.05,9.889a7.819,7.819,0,0,0-1.172-.371,0.693,0.693,0,0,0-.062-0.048,15.158,15.158,0,0,0-17.162,2.466,0.724,0.724,0,0,0-.068.1,3.606,3.606,0,0,0-2.713,2.6,3.725,3.725,0,0,0-2.782,3.246,3.464,3.464,0,0,0,.014.739,4.753,4.753,0,0,0-.734,8.316,3.523,3.523,0,0,0-.144.721A3.751,3.751,0,0,0,8.6,31.423,7.923,7.923,0,0,0,20.3,37.9a15.381,15.381,0,0,0,2.555.239,0.715,0.715,0,0,0,.116.389l2.068,3.122a0.721,0.721,0,0,0,.6.324H25.65a0.721,0.721,0,0,0,.6-0.337l1.768-2.807a2.545,2.545,0,0,0,1.073.236,2.721,2.721,0,0,0,1.423-.41l2.2-1.617a18.088,18.088,0,0,0,5.615-6.8l0.99-2.087a2.605,2.605,0,0,0-.2-2.47l2.856-.913A0.721,0.721,0,0,0,42.44,23.86ZM30.972,11.442l0.621,0.315,0.337-.611a2.157,2.157,0,1,1,2.663,3.047h0l-0.649.252L34.172,15.1A6.5,6.5,0,1,1,30.972,11.442Zm-17.63,1.95a2.164,2.164,0,1,1-2.164,2.164A2.164,2.164,0,0,1,13.341,13.392ZM14.022,23.4v0c-0.2.067-.4,0.136-0.6,0.216-0.043.018-.082,0.04-0.124,0.058A2.164,2.164,0,1,1,14.022,23.4Zm-6.36,4.382a2.178,2.178,0,0,1,.245-0.811l0.337-.64L7.6,26a3.341,3.341,0,0,1,.551-6.246l0.69-.216-0.221-.689a2.131,2.131,0,0,1-.1-0.84A2.249,2.249,0,0,1,9.8,16.2a3.6,3.6,0,0,0,1.359,2.209c-0.019.01-.04,0.016-0.059,0.027a3.6,3.6,0,0,0,.322,6.408,7.915,7.915,0,0,0-2.768,4.983A2.269,2.269,0,0,1,7.663,27.783Zm8.846,9.643a6.481,6.481,0,0,1-6.492-6.471v-0.02A6.492,6.492,0,1,1,16.508,37.426Zm9.118,2.5L24.875,38.79l1.515-.072Zm0.914-3.831c-0.007.049,0,.1-0.006,0.144a13.873,13.873,0,0,1-4.554.424A7.924,7.924,0,0,0,16.508,23c-0.107,0-.216.012-0.32,0.016a3.589,3.589,0,0,0-1.1-4.328,3.581,3.581,0,0,0-.5-6.505A13.643,13.643,0,0,1,23,9.3a13.787,13.787,0,0,1,2.885.307,7.93,7.93,0,1,0,10.008,8.76,13.6,13.6,0,0,1,.734,6.073h0a2.627,2.627,0,0,0-2.224,1.57L33.662,27.5a16.483,16.483,0,0,1-4.372,5.482l-1.642,1.342A2.6,2.6,0,0,0,26.54,36.094ZM38,27.559l-0.977,2.06a16.646,16.646,0,0,1-5.166,6.259l-2.148,1.583a1.158,1.158,0,0,1-1.344-1.878,1.132,1.132,0,0,1,.1-0.077L30.2,34.1a17.909,17.909,0,0,0,4.751-5.958l0.757-1.529A1.241,1.241,0,0,1,38,26.629,1.215,1.215,0,0,1,38,27.559Zm0.846-3.311L39,22.9l1.207,0.918Zm-20.9,3.079h1.443V28.77H17.951V27.328Zm2.164,2.164h1.443v1.443H20.115V29.492Zm-2.164,2.885h1.443v1.442H17.951V32.377Zm-5.77,0h1.443v1.442H12.181V32.377Zm1.443-5.049h1.443V28.77H13.623V27.328Zm1.443,7.213h1.443v1.443H15.066V34.54Zm0-4.328h1.443v1.443H15.066V30.213Z"/>
</svg>
