<svg xmlns="http://www.w3.org/2000/svg" width="50" height="50" viewBox="0 0 112 112">
  <metadata><?xpacket begin="﻿" id="W5M0MpCehiHzreSzNTczkc9d"?>
<x:xmpmeta xmlns:x="adobe:ns:meta/" x:xmptk="Adobe XMP Core 5.6-c138 79.159824, 2016/09/14-01:09:01        ">
   <rdf:RDF xmlns:rdf="http://www.w3.org/1999/02/22-rdf-syntax-ns#">
      <rdf:Description rdf:about=""/>
   </rdf:RDF>
</x:xmpmeta>
                                                                                                    
                                                                                                    
                                                                                                    
                                                                                                    
                                                                                                    
                                                                                                    
                                                                                                    
                                                                                                    
                                                                                                    
                                                                                                    
                                                                                                    
                                                                                                    
                                                                                                    
                                                                                                    
                                                                                                    
                                                                                                    
                                                                                                    
                                                                                                    
                                                                                                    
                                                                                                    
                           
<?xpacket end="w"?></metadata>
<defs>
    <style>
      .cls-1 {
        fill: #92b116;
        fill-rule: evenodd;
      }
    </style>
  </defs>
  <path class="cls-1" d="M59.73,80.106a3.45,3.45,0,1,1-3.45-3.445A3.447,3.447,0,0,1,59.73,80.106Zm-6.5-65.97L34.439,42.275,6.258,23.517a3.448,3.448,0,0,0-5.3,3.507L11.081,80.429V93.887a3.447,3.447,0,0,0,3.45,3.444H97.338a3.447,3.447,0,0,0,3.451-3.444V80.44l10.449-53.4a3.45,3.45,0,0,0-5.3-3.527L77.755,42.277,58.968,14.136M33.482,49.921a3.454,3.454,0,0,0,4.785-.955L56.1,22.258,73.929,48.965a3.453,3.453,0,0,0,4.783.955l24.166-16.086L94.5,76.661H71.806a3.445,3.445,0,1,0,0,6.89H93.888v6.891H17.982V83.552H40.754a3.445,3.445,0,1,0,0-6.89H17.39L9.261,33.8Z"/>
</svg>
