<svg xmlns="http://www.w3.org/2000/svg" width="16" height="16" viewBox="0 0 45 45">
  <metadata><?xpacket begin="﻿" id="W5M0MpCehiHzreSzNTczkc9d"?>
<x:xmpmeta xmlns:x="adobe:ns:meta/" x:xmptk="Adobe XMP Core 5.6-c138 79.159824, 2016/09/14-01:09:01        ">
   <rdf:RDF xmlns:rdf="http://www.w3.org/1999/02/22-rdf-syntax-ns#">
      <rdf:Description rdf:about=""/>
   </rdf:RDF>
</x:xmpmeta>
                                                                                                    
                                                                                                    
                                                                                                    
                                                                                                    
                                                                                                    
                                                                                                    
                                                                                                    
                                                                                                    
                                                                                                    
                                                                                                    
                                                                                                    
                                                                                                    
                                                                                                    
                                                                                                    
                                                                                                    
                                                                                                    
                                                                                                    
                                                                                                    
                                                                                                    
                                                                                                    
                           
<?xpacket end="w"?></metadata>
<defs>
    <style>
      .cls-1 {
        fill: #92b116;
        fill-rule: evenodd;
      }
    </style>
  </defs>
  <path class="cls-1" d="M40.1,8.76a0.712,0.712,0,0,0,.713-0.712V5.2a3.566,3.566,0,0,0-3.563-3.56H8.745A3.566,3.566,0,0,0,5.182,5.2V43.648a0.712,0.712,0,0,0,.713.712H34.4a0.712,0.712,0,0,0,.713-0.712v-11.1l4.737-4.732a3.288,3.288,0,0,0,0-4.653L37.8,21.116a3.274,3.274,0,0,0-2.329-.964,3.368,3.368,0,0,0-.356.019V8.76H40.1Zm-2.851-5.7A2.14,2.14,0,0,1,39.391,5.2V7.336H35.115V5.2A2.14,2.14,0,0,1,37.253,3.064ZM21.735,37.7l1.521,1.52-2.092.57Zm3.105,1.088-2.673-2.671,0.409-1.5a4.992,4.992,0,0,1,.817-1.671l4.62,4.615a5,5,0,0,1-1.672.816Zm6.712-14.065,0.774,0.773-7.188,7.181L24.363,31.9ZM26.145,33.68L33.333,26.5l1.13,1.129-7.188,7.181Zm6.414-9.968,0.417-.417,4.694,4.689-0.417.417Zm-3.5,12.877-0.774-.773,7.188-7.181,0.774,0.773Zm7.735-14.466,2.052,2.05a1.865,1.865,0,0,1,0,2.639h0l-0.165.165-4.694-4.689,0.166-.165a1.869,1.869,0,0,1,2.642,0h0Zm-3.65-1.007L22.853,31.4A6.419,6.419,0,0,0,21.2,34.24l-1.6,5.848H11.6a0.712,0.712,0,1,1,0-1.424h1.425a0.712,0.712,0,0,0,.713-0.712v-3.56h2.138a0.712,0.712,0,0,0,.713-0.712v-5.7a0.712,0.712,0,0,0-.713-0.712H13.734V24.424h2.138a0.712,0.712,0,0,0,.713-0.712V21.576h2.851v2.136a0.712,0.712,0,0,0,.713.712h5.7a0.712,0.712,0,0,0,.713-0.712v-5.7A0.712,0.712,0,0,0,25.85,17.3h-5.7a0.712,0.712,0,0,0-.713.712v2.136H16.585V18.016a0.712,0.712,0,0,0-.713-0.712H13.734V14.456h2.138a0.712,0.712,0,0,0,.713-0.712v-5.7a0.712,0.712,0,0,0-.713-0.712h-5.7a0.712,0.712,0,0,0-.713.712v5.7a0.712,0.712,0,0,0,.713.712h2.138V17.3H10.171a0.712,0.712,0,0,0-.713.712v5.7a0.712,0.712,0,0,0,.713.712h2.138v2.848H10.171a0.712,0.712,0,0,0-.713.712v5.7a0.712,0.712,0,0,0,.713.712h2.138V37.24H11.6a2.136,2.136,0,1,0,0,4.272h8.552a0.711,0.711,0,0,0,.187-0.025l6.379-1.738A6.429,6.429,0,0,0,29.562,38.1l4.127-4.123v8.961H6.607V5.2A2.139,2.139,0,0,1,8.745,3.064H34.4A3.54,3.54,0,0,0,33.689,5.2V20.675a3.326,3.326,0,0,0-.547.441h0ZM15.16,28.7v4.272H10.883V28.7H15.16Zm0-9.968V23H10.883V18.728H15.16ZM20.861,23V18.728h4.276V23H20.861Zm-9.978-9.968V8.76H15.16v4.272H10.883ZM21.574,8.76h2.851a0.712,0.712,0,1,0,0-1.424H21.574A0.712,0.712,0,1,0,21.574,8.76Zm8.552,1.424H20.148a0.712,0.712,0,1,0,0,1.424h9.978A0.712,0.712,0,1,0,30.126,10.184Zm0,2.848H20.148a0.712,0.712,0,1,0,0,1.424h9.978A0.712,0.712,0,1,0,30.126,13.032Zm0-5.7H27.275a0.712,0.712,0,1,0,0,1.424h2.851A0.712,0.712,0,1,0,30.126,7.336Z"/>
</svg>
