<svg xmlns="http://www.w3.org/2000/svg" width="16" height="16" viewBox="0 0 45 45">
  <metadata><?xpacket begin="﻿" id="W5M0MpCehiHzreSzNTczkc9d"?>
<x:xmpmeta xmlns:x="adobe:ns:meta/" x:xmptk="Adobe XMP Core 5.6-c138 79.159824, 2016/09/14-01:09:01        ">
   <rdf:RDF xmlns:rdf="http://www.w3.org/1999/02/22-rdf-syntax-ns#">
      <rdf:Description rdf:about=""/>
   </rdf:RDF>
</x:xmpmeta>
                                                                                                    
                                                                                                    
                                                                                                    
                                                                                                    
                                                                                                    
                                                                                                    
                                                                                                    
                                                                                                    
                                                                                                    
                                                                                                    
                                                                                                    
                                                                                                    
                                                                                                    
                                                                                                    
                                                                                                    
                                                                                                    
                                                                                                    
                                                                                                    
                                                                                                    
                                                                                                    
                           
<?xpacket end="w"?></metadata>
<defs>
    <style>
      .cls-1 {
        fill: #92b116;
        fill-rule: evenodd;
      }
    </style>
  </defs>
  <path class="cls-1" d="M44.56,24.345c-0.109.79-.191,1.584-0.331,2.369a21.237,21.237,0,0,1-7.048,12.5,20.757,20.757,0,0,1-10.687,5.06,20.925,20.925,0,0,1-15.75-3.571,20.85,20.85,0,0,1-9-14.21A20.872,20.872,0,0,1,6.578,9.07a20.978,20.978,0,0,1,12.38-7.252c0.755-.147,1.526-0.21,2.289-0.315,0.137-.019.272-0.05,0.408-0.076H24.35c0.734,0.1,1.472.167,2.2,0.292a21.153,21.153,0,0,1,10.668,5.09,21.22,21.22,0,0,1,7.01,12.472c0.14,0.784.222,1.579,0.331,2.368v2.7ZM3.313,22.988A19.689,19.689,0,1,0,23.01,3.3,19.751,19.751,0,0,0,3.313,22.988Zm19.693-.924A12.171,12.171,0,0,1,35.061,32.579c0.063,0.458.1,0.921,0.122,1.383a0.968,0.968,0,1,1-1.88.055,10.139,10.139,0,0,0-1.137-4.486,10.3,10.3,0,0,0-19.332,3.029c-0.1.593-.084,1.2-0.164,1.8a0.917,0.917,0,0,1-1.493.62,1.023,1.023,0,0,1-.363-0.9,12.026,12.026,0,0,1,5-9.658A11.753,11.753,0,0,1,23.006,22.065Zm0.176-1.882a6.564,6.564,0,1,1,6.379-6.87A6.6,6.6,0,0,1,23.181,20.182ZM23.006,18.3a4.684,4.684,0,1,0-4.694-4.676A4.691,4.691,0,0,0,23.006,18.3Z"/>
</svg>
