<svg xmlns="http://www.w3.org/2000/svg" width="24" height="24" viewBox="0 0 55 55">
  <metadata><?xpacket begin="﻿" id="W5M0MpCehiHzreSzNTczkc9d"?>
<x:xmpmeta xmlns:x="adobe:ns:meta/" x:xmptk="Adobe XMP Core 5.6-c138 79.159824, 2016/09/14-01:09:01        ">
   <rdf:RDF xmlns:rdf="http://www.w3.org/1999/02/22-rdf-syntax-ns#">
      <rdf:Description rdf:about=""/>
   </rdf:RDF>
</x:xmpmeta>
                                                                                                    
                                                                                                    
                                                                                                    
                                                                                                    
                                                                                                    
                                                                                                    
                                                                                                    
                                                                                                    
                                                                                                    
                                                                                                    
                                                                                                    
                                                                                                    
                                                                                                    
                                                                                                    
                                                                                                    
                                                                                                    
                                                                                                    
                                                                                                    
                                                                                                    
                                                                                                    
                           
<?xpacket end="w"?></metadata>
<defs>
    <style>
      .cls-1 {
        fill: #333;
        fill-rule: evenodd;
      }
    </style>
  </defs>
  <path id="_-e-Shape_23" data-name="-e-Shape 23" class="cls-1" d="M25.714,54.9a8.578,8.578,0,0,1-8.573-8.562H20.57a5.144,5.144,0,0,0,10.288,0h3.429A8.578,8.578,0,0,1,25.714,54.9Zm18.861-6.849H6.853a3.994,3.994,0,0,1-2.6-7.032,1.926,1.926,0,0,1,.174-0.133A15.332,15.332,0,0,0,9.711,29.3v-6.37a16.011,16.011,0,0,1,16-15.982,6.907,6.907,0,0,1,1.127.069L26.279,10.4a3.356,3.356,0,0,0-.565-0.023A12.58,12.58,0,0,0,13.14,22.931V29.3A18.756,18.756,0,0,1,6.5,43.618c-0.03.025-.059,0.05-0.094,0.075a0.564,0.564,0,0,0-.126.358,0.577,0.577,0,0,0,.571.571H44.574a0.578,0.578,0,0,0,.572-0.571,0.554,0.554,0,0,0-.126-0.358c-0.032-.023-0.062-0.048-0.091-0.073A18.753,18.753,0,0,1,38.287,29.3V26.814h3.429V29.3a15.345,15.345,0,0,0,5.29,11.587,1.741,1.741,0,0,1,.167.126,3.994,3.994,0,0,1-2.6,7.032h0ZM41.717,22.933A11.415,11.415,0,1,1,53.147,11.518,11.436,11.436,0,0,1,41.717,22.933Zm0-19.406a7.991,7.991,0,1,0,8,7.991A8,8,0,0,0,41.717,3.527Z"/>
</svg>
