<svg width="24" height="24" viewBox="0 0 24 24" fill="none" xmlns="http://www.w3.org/2000/svg">
<path fill-rule="evenodd" clip-rule="evenodd" d="M22.22 10.2824V22.9551H23.5686C23.8381 22.9551 24 23.1776 24 23.3996C24 23.6776 23.7843 23.8445 23.5686 23.8445H0.3776C0.161878 23.8445 0 23.6221 0 23.3996C0 23.122 0.161878 22.9551 0.3776 22.9551V23.0106H1.77962V10.3379C0.701009 9.72645 0 8.61493 0 7.33648C0 7.22543 0 7.16991 0.0538436 7.11439L3.66727 0.22209C3.7753 0.111045 3.88299 0 4.04487 0H19.5237C19.6314 0 19.7933 0.111045 19.8471 0.22209L23.892 7.11439C23.9462 7.16991 23.9462 7.28096 23.9462 7.33648C23.9462 8.61493 23.2448 9.72645 22.22 10.2824V10.2824ZM4.96195 22.9551H9.33023V12.7279H4.96195V22.9551V22.9551ZM3.34386 9.83785C4.58435 9.83785 5.55492 8.94842 5.77064 7.72585H0.862887C1.07861 8.8929 2.10337 9.83785 3.34386 9.83785V9.83785ZM4.26059 0.833552L1.07861 6.89194H5.44724L7.44257 0.833552H4.26059V0.833552ZM11.5416 0.833552H8.30546L6.25628 6.89194H11.5416V0.833552V0.833552ZM6.68772 7.72585C6.90344 8.8929 7.87402 9.83785 9.1145 9.83785C10.355 9.83785 11.3259 8.94842 11.5416 7.72585H6.68772ZM9.06066 10.7269C7.82017 10.7269 6.74157 10.0044 6.20209 8.94842C5.66296 10.0044 4.58435 10.7269 3.34386 10.7269C3.0743 10.7269 2.80438 10.6714 2.58866 10.6159H2.53482V23.0106H4.09871V12.3389C4.09871 12.0609 4.31444 11.8943 4.5305 11.8943H9.70783C9.97739 11.8943 10.1393 12.1168 10.1393 12.3389V23.0106H21.3572V10.6159C21.0876 10.6714 20.8719 10.7269 20.6023 10.7269C19.308 10.7269 18.229 10.0044 17.6899 8.8929C17.1504 10.0044 16.0179 10.7269 14.7775 10.7269C13.537 10.7269 12.4584 10.0044 11.9192 8.94842C11.3798 10.0044 10.3011 10.7269 9.06066 10.7269V10.7269ZM17.2584 7.72585H12.4045C12.6202 8.8929 13.5908 9.83785 14.8313 9.83785C16.0718 9.83785 17.0427 8.94842 17.2584 7.72585ZM12.3507 0.833552V6.89194H17.3123L15.2627 0.833552H12.3507V0.833552ZM19.1999 0.833552H16.1256L18.1752 6.89194H22.7595L19.1999 0.833552ZM18.229 7.72585C18.4447 8.8929 19.4157 9.83785 20.6561 9.83785C21.8428 9.83785 22.8672 8.94842 23.0829 7.72585H18.229V7.72585ZM19.6852 12.2833V19.5091C19.6852 19.7867 19.4695 19.9537 19.2538 19.9537H12.2426C12.0269 19.9537 11.865 19.7867 11.8112 19.5091V12.2833C11.8112 12.0054 12.0269 11.8388 12.2426 11.8388H19.2538C19.5237 11.8388 19.6852 12.0609 19.6852 12.2833ZM18.8765 12.7279H12.6741V19.1201H18.8765V12.7279V12.7279ZM5.98637 19.2867C5.7168 19.2867 5.55492 19.0642 5.55492 18.8421V17.1747C5.55492 16.8967 5.77064 16.7301 5.98637 16.7301C6.25628 16.7301 6.41781 16.8967 6.41781 17.1747V18.8421C6.41781 19.1201 6.25628 19.2867 5.98637 19.2867V19.2867Z" fill="#4E5253"/>
</svg>
