<svg xmlns="http://www.w3.org/2000/svg" width="50" height="50" viewBox="0 0 112 112">
  <metadata><?xpacket begin="﻿" id="W5M0MpCehiHzreSzNTczkc9d"?>
<x:xmpmeta xmlns:x="adobe:ns:meta/" x:xmptk="Adobe XMP Core 5.6-c138 79.159824, 2016/09/14-01:09:01        ">
   <rdf:RDF xmlns:rdf="http://www.w3.org/1999/02/22-rdf-syntax-ns#">
      <rdf:Description rdf:about=""/>
   </rdf:RDF>
</x:xmpmeta>
                                                                                                    
                                                                                                    
                                                                                                    
                                                                                                    
                                                                                                    
                                                                                                    
                                                                                                    
                                                                                                    
                                                                                                    
                                                                                                    
                                                                                                    
                                                                                                    
                                                                                                    
                                                                                                    
                                                                                                    
                                                                                                    
                                                                                                    
                                                                                                    
                                                                                                    
                                                                                                    
                           
<?xpacket end="w"?></metadata>
<defs>
    <style>
      .cls-1 {
        fill: #92b116;
        fill-rule: evenodd;
      }
    </style>
  </defs>
  <path class="cls-1" d="M59.607,79.808a3.438,3.438,0,1,1-3.438-3.436A3.437,3.437,0,0,1,59.607,79.808Zm-6.479-65.8L34.409,42.076,6.332,23.367a3.436,3.436,0,0,0-5.284,3.5L11.138,80.13V93.553a3.436,3.436,0,0,0,3.438,3.435h82.5a3.436,3.436,0,0,0,3.438-3.435V80.141l10.411-53.256a3.438,3.438,0,0,0-5.282-3.518L77.566,42.078,58.848,14.011M33.456,49.7a3.439,3.439,0,0,0,4.767-.953L55.988,22.112,73.754,48.749a3.438,3.438,0,0,0,4.766.953L102.6,33.658,94.247,76.372H71.639a3.436,3.436,0,1,0,0,6.872h22v6.872H18.013V83.244H40.7a3.436,3.436,0,1,0,0-6.872H17.424L9.324,33.62Z"/>
</svg>
