<svg xmlns="http://www.w3.org/2000/svg" width="16" height="16" viewBox="0 0 45 45">
  <metadata><?xpacket begin="﻿" id="W5M0MpCehiHzreSzNTczkc9d"?>
<x:xmpmeta xmlns:x="adobe:ns:meta/" x:xmptk="Adobe XMP Core 5.6-c138 79.159824, 2016/09/14-01:09:01        ">
   <rdf:RDF xmlns:rdf="http://www.w3.org/1999/02/22-rdf-syntax-ns#">
      <rdf:Description rdf:about=""/>
   </rdf:RDF>
</x:xmpmeta>
                                                                                                    
                                                                                                    
                                                                                                    
                                                                                                    
                                                                                                    
                                                                                                    
                                                                                                    
                                                                                                    
                                                                                                    
                                                                                                    
                                                                                                    
                                                                                                    
                                                                                                    
                                                                                                    
                                                                                                    
                                                                                                    
                                                                                                    
                                                                                                    
                                                                                                    
                                                                                                    
                           
<?xpacket end="w"?></metadata>
<defs>
    <style>
      .cls-1 {
        fill: #92b116;
        fill-rule: evenodd;
      }
    </style>
  </defs>
  <path class="cls-1" d="M43.049,9.026L35.472,1.451a0.832,0.832,0,0,0-.589-0.244H10.155a2.5,2.5,0,0,0-2.5,2.5V5.292A11.016,11.016,0,0,0,.664,15.535a0.833,0.833,0,0,0,.833.833H11.662a0.833,0.833,0,0,0,.833-0.833V5.37a0.833,0.833,0,0,0-.833-0.833,10.984,10.984,0,0,0-2.339.251V3.7a0.834,0.834,0,0,1,.833-0.832h23.9V7.951a2.5,2.5,0,0,0,2.5,2.5h5.079v30.89a0.834,0.834,0,0,1-.833.833H10.155a0.834,0.834,0,0,1-.833-0.833V34.206a0.833,0.833,0,0,0-1.665,0v7.133a2.5,2.5,0,0,0,2.5,2.5H40.8a2.5,2.5,0,0,0,2.5-2.5V9.615A0.832,0.832,0,0,0,43.049,9.026ZM10.829,6.239V14.7H2.366A9.348,9.348,0,0,1,10.829,6.239Zm25.72,2.544a0.833,0.833,0,0,1-.833-0.832v-3.9l4.735,4.734h-3.9ZM9.079,30.592a0.832,0.832,0,1,0,.244.589A0.838,0.838,0,0,0,9.079,30.592ZM14.644,7.52a0.833,0.833,0,0,0-.833.833v9.333H4.479a0.833,0.833,0,0,0-.833.833A11,11,0,1,0,14.644,7.52Zm0.833,1.7a9.29,9.29,0,0,1,5.148,2.137l-5.148,5.149V9.222ZM14.644,27.85a9.345,9.345,0,0,1-9.3-8.5h9.3a0.83,0.83,0,0,0,.588-0.244h0l6.57-6.57A9.328,9.328,0,0,1,14.644,27.85Zm22.494-.366a2.5,2.5,0,0,0-2.3,3.471l-4.8,4.8a2.493,2.493,0,0,0-2.157-.011L24.7,32.556a2.5,2.5,0,1,0-4.594.137L17.05,35.748a2.5,2.5,0,1,0,1.179,1.176l3.038-3.038a2.489,2.489,0,0,0,2.339-.068l3.1,3.1a2.5,2.5,0,1,0,4.509.024l4.752-4.752A2.5,2.5,0,1,0,37.138,27.484ZM15.976,38.835a0.833,0.833,0,1,1,.576-1.432l0.01,0.011,0.012,0.011A0.832,0.832,0,0,1,15.976,38.835Zm6.4-6.355a0.833,0.833,0,1,1,.833-0.833A0.834,0.834,0,0,1,22.372,32.48Zm6.578,6.352A0.833,0.833,0,1,1,29.783,38,0.833,0.833,0,0,1,28.95,38.832Zm8.187-8.017a0.833,0.833,0,1,1,.833-0.832A0.834,0.834,0,0,1,37.138,30.815ZM32.976,20.773H28.582a0.833,0.833,0,0,0,0,1.665h4.394A0.833,0.833,0,0,0,32.976,20.773Zm4.379,0.244a0.832,0.832,0,1,0,.244.589A0.839,0.839,0,0,0,37.356,21.017Zm1.4-8.237H28.582a0.833,0.833,0,1,0,0,1.665H38.752A0.833,0.833,0,0,0,38.752,12.78Zm0,4H28.582a0.833,0.833,0,1,0,0,1.665H38.752A0.833,0.833,0,1,0,38.752,16.777Z"/>
</svg>
