<svg xmlns="http://www.w3.org/2000/svg" width="24" height="24" viewBox="0 0 64 64">
  <metadata><?xpacket begin="﻿" id="W5M0MpCehiHzreSzNTczkc9d"?>
<x:xmpmeta xmlns:x="adobe:ns:meta/" x:xmptk="Adobe XMP Core 5.6-c138 79.159824, 2016/09/14-01:09:01        ">
   <rdf:RDF xmlns:rdf="http://www.w3.org/1999/02/22-rdf-syntax-ns#">
      <rdf:Description rdf:about=""/>
   </rdf:RDF>
</x:xmpmeta>
                                                                                                    
                                                                                                    
                                                                                                    
                                                                                                    
                                                                                                    
                                                                                                    
                                                                                                    
                                                                                                    
                                                                                                    
                                                                                                    
                                                                                                    
                                                                                                    
                                                                                                    
                                                                                                    
                                                                                                    
                                                                                                    
                                                                                                    
                                                                                                    
                                                                                                    
                                                                                                    
                           
<?xpacket end="w"?></metadata>
<defs>
    <style>
      .cls-1 {
        fill: #92b116;
        fill-rule: evenodd;
      }
    </style>
  </defs>
  <path id="_-e-Shape_10" data-name="-e-Shape 10" class="cls-1" d="M61.37,45.333H48.057a5.249,5.249,0,0,0-1.18-7.035V34.4l0.6,0.6a1.191,1.191,0,0,0,1.683,0l4.679-4.679a1.19,1.19,0,0,0,0-1.683l-4.679-4.679a1.191,1.191,0,0,0-1.683,0l-0.6.6V7.82a1.191,1.191,0,0,0-1.19-1.19h-3.8V5.686a4.294,4.294,0,1,0-8.589,0V6.629H28.553V5.686a4.294,4.294,0,1,0-8.589,0V6.629H15.221V5.686a4.294,4.294,0,1,0-8.589,0V6.629h-3.8a1.191,1.191,0,0,0-1.19,1.19V61.151a1.191,1.191,0,0,0,1.19,1.19H18.9a1.19,1.19,0,0,0,0-2.381H4.022V9.01H12.84V9.954a1.916,1.916,0,0,1-1.914,1.913,1.191,1.191,0,0,0,0,2.381,4.3,4.3,0,0,0,4.294-4.294V9.01H26.172V9.954a1.916,1.916,0,0,1-1.913,1.913,1.191,1.191,0,0,0,0,2.381,4.3,4.3,0,0,0,4.294-4.294V9.01H39.505V9.954a1.916,1.916,0,0,1-1.913,1.913,1.191,1.191,0,0,0,0,2.381,4.3,4.3,0,0,0,4.294-4.294V9.01H44.5V26.929l-1.7,1.7a1.191,1.191,0,0,0,0,1.684l1.7,1.7v5.245a5.257,5.257,0,0,0-5.237,8.072H32.116a1.191,1.191,0,0,0-1.19,1.191A15.821,15.821,0,0,0,38.407,59.96H29.616a1.19,1.19,0,0,0,0,2.381H46.743A15.836,15.836,0,0,0,62.561,46.524a1.191,1.191,0,0,0-1.19-1.191h0ZM9.013,6.629V5.686a1.913,1.913,0,1,1,3.827,0V6.629H9.013Zm13.333,0V5.686a1.914,1.914,0,1,1,3.827,0V6.629H22.345Zm13.333,0V5.686a1.913,1.913,0,1,1,3.827,0V6.629H35.678ZM48.315,26.477l3,3-3,3-3-3ZM40.779,42.454a2.879,2.879,0,1,1,2.879,2.88A2.883,2.883,0,0,1,40.779,42.454ZM46.743,59.96A13.455,13.455,0,0,1,33.358,47.714H60.128A13.455,13.455,0,0,1,46.743,59.96Zm4.778-18.907a6.485,6.485,0,0,0,9.17-9.171,1.191,1.191,0,0,0-1.684,0l-7.487,7.487A1.191,1.191,0,0,0,51.521,41.053Zm8.2-6.521a4.1,4.1,0,0,1-5.554,5.554ZM34.475,24.263a1.19,1.19,0,0,0-1.19,1.19v0.47a4.2,4.2,0,0,0-2.936,4.8l1.183,6.337a2.994,2.994,0,0,0,5.886,0L38.6,30.719a4.2,4.2,0,0,0-2.936-4.8v-0.47a1.19,1.19,0,0,0-1.19-1.19h0Zm1.4,4.525a1.812,1.812,0,0,1,.388,1.494l-1.183,6.337a0.613,0.613,0,0,1-1.206,0L32.69,30.282a1.817,1.817,0,0,1,3.184-1.494h0Zm-24.582-8.04a1.189,1.189,0,1,0,.349.842A1.194,1.194,0,0,0,11.292,20.748Zm15.6-.349H16.362a1.191,1.191,0,0,0,0,2.381H26.887A1.191,1.191,0,0,0,26.887,20.4Zm-15.6,8.854a1.189,1.189,0,1,0,.349.841A1.2,1.2,0,0,0,11.292,29.252Zm15.6-.349H16.362a1.191,1.191,0,0,0,0,2.381H26.887A1.191,1.191,0,0,0,26.887,28.9Zm-15.6,8.853a1.19,1.19,0,1,0,.349.843A1.2,1.2,0,0,0,11.292,37.756Zm15.6-.348H16.362a1.19,1.19,0,0,0,0,2.381H26.887A1.19,1.19,0,0,0,26.887,37.408Zm-16.437,8.5a1.191,1.191,0,1,0,.841.349A1.2,1.2,0,0,0,10.45,45.913Zm16.437,0H16.362a1.19,1.19,0,0,0,0,2.381H26.887A1.19,1.19,0,1,0,26.887,45.913ZM24.259,59.96a1.191,1.191,0,1,0,.842.349A1.2,1.2,0,0,0,24.259,59.96Z"/>
</svg>
