<svg xmlns="http://www.w3.org/2000/svg" width="24" height="24" viewBox="0 0 64 64">
  <metadata><?xpacket begin="﻿" id="W5M0MpCehiHzreSzNTczkc9d"?>
<x:xmpmeta xmlns:x="adobe:ns:meta/" x:xmptk="Adobe XMP Core 5.6-c138 79.159824, 2016/09/14-01:09:01        ">
   <rdf:RDF xmlns:rdf="http://www.w3.org/1999/02/22-rdf-syntax-ns#">
      <rdf:Description rdf:about=""/>
   </rdf:RDF>
</x:xmpmeta>
                                                                                                    
                                                                                                    
                                                                                                    
                                                                                                    
                                                                                                    
                                                                                                    
                                                                                                    
                                                                                                    
                                                                                                    
                                                                                                    
                                                                                                    
                                                                                                    
                                                                                                    
                                                                                                    
                                                                                                    
                                                                                                    
                                                                                                    
                                                                                                    
                                                                                                    
                                                                                                    
                           
<?xpacket end="w"?></metadata>
<defs>
    <style>
      .cls-1 {
        fill: #92b116;
        fill-rule: evenodd;
      }
    </style>
  </defs>
  <path id="_-e-Shape_16" data-name="-e-Shape 16" class="cls-1" d="M35.025,25.655a1.2,1.2,0,0,0,1.2-1.2V19.677a1.2,1.2,0,1,0-2.405,0v4.776A1.2,1.2,0,0,0,35.025,25.655Zm0-9.6a1.2,1.2,0,0,0,1.2-1.2V14.843A1.2,1.2,0,1,0,35.025,16.052ZM56.08,1.433H9.7A2.692,2.692,0,0,0,7.013,4.122V57.274a5.74,5.74,0,0,0,5.733,5.733H56.08a1.2,1.2,0,0,0,1.2-1.2V2.635A1.2,1.2,0,0,0,56.08,1.433ZM9.418,4.122A0.288,0.288,0,0,1,9.7,3.838h5.063v47.7H12.746a5.7,5.7,0,0,0-3.328,1.068V4.122ZM54.877,51.538H36.46a1.2,1.2,0,0,0,0,2.405H54.877V60.6H12.746a3.33,3.33,0,0,1,0-6.659H25.66a1.2,1.2,0,0,0,0-2.405h-8.49V3.838H54.877v47.7ZM35.025,31.1a11.448,11.448,0,1,0-11.447-11.45A11.462,11.462,0,0,0,35.025,31.1h0Zm0-20.491a9.043,9.043,0,1,1-9.042,9.041A9.052,9.052,0,0,1,35.025,10.6ZM25.166,46.157H43.793A2.009,2.009,0,0,0,45.8,44.15V39.067a2.008,2.008,0,0,0-2.007-2H25.166a2.006,2.006,0,0,0-2,2V44.15a2.008,2.008,0,0,0,2,2.007h0Zm0.4-6.688H43.4v4.283H25.567V39.468ZM31.06,51.538a1.2,1.2,0,0,0,0,2.405h0.007a1.2,1.2,0,1,0-.007-2.405h0Z"/>
</svg>
