<svg xmlns="http://www.w3.org/2000/svg" width="18" height="18" viewBox="0 0 47 47">
  <metadata><?xpacket begin="﻿" id="W5M0MpCehiHzreSzNTczkc9d"?>
<x:xmpmeta xmlns:x="adobe:ns:meta/" x:xmptk="Adobe XMP Core 5.6-c138 79.159824, 2016/09/14-01:09:01        ">
   <rdf:RDF xmlns:rdf="http://www.w3.org/1999/02/22-rdf-syntax-ns#">
      <rdf:Description rdf:about=""/>
   </rdf:RDF>
</x:xmpmeta>
                                                                                                    
                                                                                                    
                                                                                                    
                                                                                                    
                                                                                                    
                                                                                                    
                                                                                                    
                                                                                                    
                                                                                                    
                                                                                                    
                                                                                                    
                                                                                                    
                                                                                                    
                                                                                                    
                                                                                                    
                                                                                                    
                                                                                                    
                                                                                                    
                                                                                                    
                                                                                                    
                           
<?xpacket end="w"?></metadata>
<defs>
    <style>
      .cls-1 {
        fill: #333;
        fill-rule: evenodd;
      }
    </style>
  </defs>
  <path class="cls-1" d="M5.649,10.9a1.2,1.2,0,0,0-1.656.372,22.922,22.922,0,1,0,7.173-7.151,1.2,1.2,0,1,0,1.28,2.028,20.491,20.491,0,1,1-6.425,6.405A1.2,1.2,0,0,0,5.649,10.9ZM38.976,24.724h1.48a1.2,1.2,0,1,0,0-2.4h-1.48A1.2,1.2,0,1,0,38.976,24.724ZM5.093,23.486a1.2,1.2,0,0,0,1.2,1.2h1.48a1.2,1.2,0,1,0,0-2.4H6.293A1.2,1.2,0,0,0,5.093,23.486Zm19.5-15.566V6.441a1.2,1.2,0,0,0-2.4,0V7.919A1.2,1.2,0,0,0,24.594,7.919ZM22.155,39.091v1.478a1.2,1.2,0,0,0,2.4,0V39.091A1.2,1.2,0,0,0,22.155,39.091ZM17.359,15.8a1.2,1.2,0,0,0-1.7,1.7l4.067,4.063a4.134,4.134,0,1,0,7.291,0l8.207-8.2a1.2,1.2,0,0,0-1.7-1.7l-8.207,8.2a4.13,4.13,0,0,0-3.9,0Zm7.75,7.7a1.734,1.734,0,1,1-1.734-1.732A1.735,1.735,0,0,1,25.109,23.505ZM8.863,9.008a1.2,1.2,0,1,0-.848.351A1.2,1.2,0,0,0,8.863,9.008Z"/>
</svg>
