<svg xmlns="http://www.w3.org/2000/svg" width="40" height="40" viewBox="0 0 144 144">
  <metadata><?xpacket begin="﻿" id="W5M0MpCehiHzreSzNTczkc9d"?>
<x:xmpmeta xmlns:x="adobe:ns:meta/" x:xmptk="Adobe XMP Core 5.6-c138 79.159824, 2016/09/14-01:09:01        ">
   <rdf:RDF xmlns:rdf="http://www.w3.org/1999/02/22-rdf-syntax-ns#">
      <rdf:Description rdf:about=""/>
   </rdf:RDF>
</x:xmpmeta>
                                                                                                    
                                                                                                    
                                                                                                    
                                                                                                    
                                                                                                    
                                                                                                    
                                                                                                    
                                                                                                    
                                                                                                    
                                                                                                    
                                                                                                    
                                                                                                    
                                                                                                    
                                                                                                    
                                                                                                    
                                                                                                    
                                                                                                    
                                                                                                    
                                                                                                    
                                                                                                    
                           
<?xpacket end="w"?></metadata>
<defs>
    <style>
      .cls-1 {
        fill: #fff;
        fill-rule: evenodd;
      }
    </style>
  </defs>
  <path class="cls-1" d="M141.414,63.622a2.109,2.109,0,0,0-2.108,2.11v62.712a10.58,10.58,0,0,1-10.565,10.57H15.48a10.579,10.579,0,0,1-10.565-10.57V55.3A2.109,2.109,0,1,0,.7,55.3v73.147A14.8,14.8,0,0,0,15.48,143.236H128.74a14.8,14.8,0,0,0,14.783-14.791V65.733A2.11,2.11,0,0,0,141.414,63.622ZM128.74,0.967H15.48A14.8,14.8,0,0,0,.7,15.758v31.1a2.109,2.109,0,1,0,4.218,0v-31.1A10.58,10.58,0,0,1,15.48,5.187H128.74a10.579,10.579,0,0,1,10.565,10.571V57.293a2.109,2.109,0,1,0,4.218,0V15.758A14.8,14.8,0,0,0,128.74.967ZM117.328,63.318a6.059,6.059,0,0,0,1.537-4.657,48.72,48.72,0,0,0-96.956,0,6.056,6.056,0,0,0,6.026,6.649H50.78A6.049,6.049,0,0,0,56.7,60.5a14.013,14.013,0,0,1,27.368,0,6.049,6.049,0,0,0,5.922,4.809h22.846a6.067,6.067,0,0,0,4.489-1.993h0ZM114.2,60.485a1.821,1.821,0,0,1-1.364.605H89.993a1.858,1.858,0,0,1-1.8-1.5A18.352,18.352,0,0,0,72.5,45.414V40.047a2.109,2.109,0,1,0-4.218,0v5.367A18.351,18.351,0,0,0,52.583,59.6a1.858,1.858,0,0,1-1.8,1.5H27.935a1.836,1.836,0,0,1-1.829-2.012q0.216-2.178.644-4.307L30.636,55.7a2.11,2.11,0,0,0,.979-4.105l-3.843-.917a44.352,44.352,0,0,1,6.675-13.408l3.989,3.226a2.109,2.109,0,0,0,2.651-3.282L37.1,33.985a44.543,44.543,0,0,1,12.429-9.792l2.193,4.594a2.109,2.109,0,1,0,3.806-1.818l-2.185-4.577a44.409,44.409,0,0,1,14.938-3.338v5.615a2.109,2.109,0,1,0,4.218,0V19.054a44.4,44.4,0,0,1,14.939,3.338l-2.185,4.578a2.109,2.109,0,1,0,3.806,1.818l2.193-4.594a44.515,44.515,0,0,1,9.1,6.41,45.145,45.145,0,0,1,3.333,3.382l-3.991,3.227a2.109,2.109,0,1,0,2.651,3.282l3.989-3.226A44.358,44.358,0,0,1,113,50.677l-3.843.917a2.11,2.11,0,1,0,.979,4.105l3.887-.928q0.424,2.128.643,4.307a1.808,1.808,0,0,1-.465,1.407h0Zm-36.593.278a7.223,7.223,0,1,0-7.223,7.226A7.233,7.233,0,0,0,77.609,60.763Zm-10.227,0a3,3,0,1,1,3,3.006,3.009,3.009,0,0,1-3-3.006h0Zm48.671,32.015a2.109,2.109,0,0,0-2.109-2.11H30.275a2.11,2.11,0,0,0,0,4.22h83.669A2.109,2.109,0,0,0,116.053,92.779ZM105.63,106.857a2.11,2.11,0,0,0-2.109-2.11H40.7a2.11,2.11,0,0,0,0,4.22h62.822A2.11,2.11,0,0,0,105.63,106.857ZM51.966,117.538a2.11,2.11,0,0,0,0,4.22H92.254a2.11,2.11,0,0,0,0-4.22H51.966Z"/>
</svg>
